<svg id="Layer_1" data-name="Layer 1" xmlns="http://www.w3.org/2000/svg" xmlns:xlink="http://www.w3.org/1999/xlink" viewBox="0 0 858.9 1072.94"><defs><style>.cls-1{fill:none;}.cls-2{clip-path:url(#clip-path);}.cls-3{fill:#5bc5f2;}.cls-4{fill:#98cce4;}.cls-5{fill:#84bdd7;}.cls-6{fill:#73b2ce;}.cls-7{fill:#64a8c6;}.cls-14,.cls-15,.cls-16,.cls-17,.cls-18,.cls-8{fill:#13253e;}.cls-9{font-size:31.49px;fill:#ced3d8;}.cls-15,.cls-16,.cls-18,.cls-9{font-family:FrutigerLTStd-BoldCn, Frutiger LT Std;font-weight:700;}.cls-10{fill:#bdd8e7;}.cls-11{fill:#c6e1f0;}.cls-12{fill:#b4d2e1;}.cls-13{fill:#b2dff5;}.cls-14{font-size:19.88px;}.cls-14,.cls-17{font-family:FrutigerLTStd-Cn, Frutiger LT Std;}.cls-15,.cls-16{font-size:74.12px;}.cls-15{letter-spacing:-0.03em;}.cls-17{font-size:28.72px;}.cls-18{font-size:42.4px;}</style><clipPath id="clip-path" transform="translate(-761.88 -1265.4)"><rect class="cls-1" x="762" y="1448.39" width="858.78" height="474.82"/></clipPath></defs><title>cursobanner</title><g class="cls-2"><polyline class="cls-3" points="0 1072.94 858.9 1072.94 858.9 0 0 0 0 1072.94"/><path class="cls-4" d="M1620.78,1869a243.79,243.79,0,0,0-46.46-4.44c-3.74,0-7.45.11-11.14.31a2.83,2.83,0,0,1-1.62-2.71c0-1.9,1.23-2.65,4.18-2.65h11.53v-4.63h-12.39c-3.88,0-7.13,1.31-7.13,5.67a5.27,5.27,0,0,0,2.3,4.51c-4.75.32-9.47.77-14.16,1.31,1.69-11.44,2.84-23.06,3.39-34.83q.36-7.81.37-15.7h0a343.38,343.38,0,0,0-35.84-153.17h4.29v-6.75c0-7.19-4.23-12.38-12.94-12.38q-.81,0-1.58.05c-.56-1-1.12-1.93-1.69-2.89l16.39-5.39,1.63.33c2,.59,2.82,1.19,2.78,2.56a4.84,4.84,0,0,1-.37,1.74l3.52.26a9.36,9.36,0,0,0,.48-2.93c0-3.08-2-4.63-4.6-5.45l-22.72-7v4.45l14.42,3.67v.07l-13.89,3.71a349.64,349.64,0,0,0-42.37-56.06,5.35,5.35,0,0,0,1-3.34c0-2.92-1.77-4.08-3.14-4.95l0,0,0-.11c.94,0,1.91-.11,2.85-.14V1568a25.19,25.19,0,0,1-3.07.14h-9.86a353.32,353.32,0,0,0-54.27-43.44l12.75-4.19,1.36.28c1.64.49,2.34,1,2.31,2.13a4,4,0,0,1-.31,1.45l2.93.22a7.81,7.81,0,0,0,.4-2.44c0-2.56-1.63-3.86-3.82-4.53l-18.91-5.8v3.7l12,3.05v.06l-12,3.21v.75a356.48,356.48,0,0,0-370.67-6c-74.88,44.18-131.77,115-157.28,199.29a323.29,323.29,0,0,0-33.12-3.89q-10.15-.66-20.47-.66a324.13,324.13,0,0,0-43.95,3V1484.68q11.82-.81,23.81-.82a415.39,415.39,0,0,1,69.54,5.9A391.72,391.72,0,0,1,870.5,1448h568.68v3.69l15.68,3.24v.08l-15.68,3.32v5.51l15.68,3.4v.08l-15.68,3.24v5l20.14-5.43v-5.32l-15.68-3.52v-.08l15.68-3.6v-5.28L1443,1448h61.49a10.56,10.56,0,0,0,4.13.77,10.78,10.78,0,0,0,4.19-.77h49.31a17.11,17.11,0,0,0,10.31,0h48.4V1869m-56.61-46.11c-7.95,0-12,4-12,11.49v6.26h24v-6.26c0-6.67-3.92-11.49-12-11.49m3.47-17.41c-7.22,0-9.46,3.27-9.46,7.09,0,4.51,4.09,7.29,9.39,7.29,4.78,0,8.88-2.48,8.88-8.19a13.21,13.21,0,0,0-1.14-5.3l-3.37.21a7,7,0,0,1,1.38,4.64c0,3.3-1.82,4.51-4.85,4.51v-10.25h-.83m-14.14-9.15,1.31,4.27h3.65v2.82h3.13v-2.82h9.7c3.71,0,5.16-1.79,5.16-5a6.57,6.57,0,0,0-.59-2.86h-3a3.36,3.36,0,0,1,.38,1.62c0,1.24-.55,1.93-2.44,1.93h-9.19v-3.54h-3.13v3.54h-5m14.14-20.16c-7.22,0-9.46,3.27-9.46,7.09,0,4.51,4.09,7.29,9.39,7.29,4.78,0,8.88-2.48,8.88-8.19a13.21,13.21,0,0,0-1.14-5.3l-3.37.21a7,7,0,0,1,1.38,4.64c0,3.3-1.82,4.51-4.85,4.51V1776.2h-.83m-8.74-15.1a11.64,11.64,0,0,0-.72,3.72c0,6,4.09,8.57,9.15,8.57s9.12-2.48,9.12-8.33a12.15,12.15,0,0,0-.72-4.2l-3.37.24a6.83,6.83,0,0,1,.86,3c0,3.27-2.54,4.85-5.85,4.85-3.78,0-6-1.41-6-4.64a6.83,6.83,0,0,1,.86-3l-3.37-.24m0-14.66a11.63,11.63,0,0,0-.72,3.71c0,6,4.09,8.57,9.15,8.57s9.12-2.48,9.12-8.32a12.15,12.15,0,0,0-.72-4.2l-3.37.24a6.83,6.83,0,0,1,.86,3c0,3.27-2.54,4.85-5.85,4.85-3.78,0-6-1.41-6-4.64a6.82,6.82,0,0,1,.86-3l-3.37-.24m-8-7.6v4.4h4.2v-4.4h-4.2m7.53.07v4.27h17.72v-4.27h-17.72m8.84-19.37c-7.22,0-9.12,4.16-9.12,7.78s1.89,7.81,9.12,7.81c7.43,0,9.15-4.2,9.15-7.81s-1.72-7.78-9.15-7.78m-15.76,3.61v4l5,2.2v-2.68l-5-3.51m13.21-21c-3.58,0-6.57,1.2-6.57,5.23a5.17,5.17,0,0,0,3,4.71v.07c-.89,0-1.82.1-2.72.14v4a24,24,0,0,1,2.92-.14h14.79v-4.27h-10.32c-2.27,0-4.16-.79-4.16-3,0-1.75,1.14-2.44,3.85-2.44h10.63v-4.27h-11.42m-14.38-27.35v4.27H1561v.07a4.76,4.76,0,0,0-2.82,4.57c0,3.82,3.37,6.12,9.15,6.12,4.92,0,9.12-1.82,9.12-6.23a4.77,4.77,0,0,0-3-4.71v-.1a23.66,23.66,0,0,0,2.75-.14v-4a22.88,22.88,0,0,1-3,.14h-22.77m17.27-17.82c-7.22,0-9.46,3.27-9.46,7.09,0,4.51,4.09,7.29,9.39,7.29,4.78,0,8.88-2.48,8.88-8.19a13.21,13.21,0,0,0-1.14-5.3l-3.37.21a7,7,0,0,1,1.38,4.64c0,3.3-1.82,4.51-4.85,4.51V1657h-.83m-3.06-21.5h.65v.86c0,5.4,1.2,9.32,6,9.32a5.08,5.08,0,0,0,5.2-5.3,5.7,5.7,0,0,0-2.68-5v-.07a8.81,8.81,0,0,0,2.41-.24v-3.85a21.88,21.88,0,0,1-3.13.24h-7.74c-4.44,0-7.12,1.27-7.12,6.78a12.34,12.34,0,0,0,1.31,5.61l3.44-.24a8.17,8.17,0,0,1-1.72-4.85,3,3,0,0,1,3.37-3.3m.17-21.95c-3.58,0-6.57,1.2-6.57,5.23a5.17,5.17,0,0,0,3,4.71v.07c-.89,0-1.82.1-2.72.14v4a24.18,24.18,0,0,1,2.92-.14h14.79v-4.27h-10.32c-2.27,0-4.16-.79-4.16-3,0-1.75,1.14-2.44,3.85-2.44h10.63v-4.27h-11.42m-59-6c-3.86,0-7.08,1.3-7.08,5.63a5.57,5.57,0,0,0,3.22,5.08v.08c-1,0-2,.11-2.93.15v4.3a26.09,26.09,0,0,1,3.15-.15h15.94V1618H1507c-2.45,0-4.48-.85-4.48-3.26,0-1.89,1.22-2.63,4.15-2.63h11.45v-4.6h-12.31m61.51-12.93c-7.22,0-9.12,4.16-9.12,7.77s1.89,7.81,9.12,7.81c7.43,0,9.15-4.2,9.15-7.81s-1.72-7.77-9.15-7.77m-61.69-1.19h.7v.93c0,5.82,1.3,10,6.49,10a5.48,5.48,0,0,0,5.6-5.71,6.14,6.14,0,0,0-2.89-5.34v-.07a9.45,9.45,0,0,0,2.59-.26v-4.15a23.58,23.58,0,0,1-3.37.26h-8.34c-4.78,0-7.67,1.37-7.67,7.3a13.31,13.31,0,0,0,1.41,6l3.71-.26A8.81,8.81,0,0,1,1502,1597c0-2.63,1.74-3.56,3.63-3.56m59.63-25.19c-4.3,0-7.05,1.24-7.05,5.09A5.49,5.49,0,0,0,1561,1578a4.58,4.58,0,0,0-2.82,4.47,4.93,4.93,0,0,0,3.06,4.47v.07c-.93,0-1.86.1-2.79.14v4.27a28,28,0,0,1,2.89-.14h14.83v-4.27h-10.73c-2,0-3.75-1-3.75-2.89,0-1.58,1.1-2.27,3.3-2.27h11.18v-4.27h-10.73c-2,0-3.75-1-3.75-2.89,0-1.58,1.1-2.27,3.3-2.27h11.18v-4.27h-10.94m-58.92-8.17c-4.63,0-7.6,1.33-7.6,5.49a5.92,5.92,0,0,0,3,5.12,4.94,4.94,0,0,0-3,4.82,5.31,5.31,0,0,0,3.3,4.82v.07c-1,0-2,.11-3,.15v4.6a29.87,29.87,0,0,1,3.11-.15h16v-4.6h-11.57c-2.11,0-4-1.07-4-3.11,0-1.7,1.19-2.45,3.56-2.45h12v-4.6h-11.57c-2.11,0-4-1.08-4-3.11,0-1.7,1.19-2.45,3.56-2.45h12V1560h-11.79m58.27-4.84h.65v.86c0,5.4,1.2,9.32,6,9.32a5.08,5.08,0,0,0,5.2-5.3,5.7,5.7,0,0,0-2.68-5v-.07a8.77,8.77,0,0,0,2.41-.24V1551a21.88,21.88,0,0,1-3.13.24h-7.74c-4.44,0-7.12,1.27-7.12,6.78a12.34,12.34,0,0,0,1.31,5.61l3.44-.24a8.17,8.17,0,0,1-1.72-4.85,3,3,0,0,1,3.37-3.3m-133.79-6.36v4.48h11.16v.07a5,5,0,0,0-3,4.8c0,4,3.54,6.43,9.6,6.43,5.16,0,9.57-1.91,9.57-6.54a5,5,0,0,0-3.18-4.95V1553a24.94,24.94,0,0,0,2.89-.14v-4.19a24,24,0,0,1-3.18.14h-23.9m77.75-9.12c-7.78,0-9.82,4.49-9.82,8.38s2,8.41,9.82,8.41c8,0,9.86-4.52,9.86-8.41s-1.85-8.38-9.86-8.38m41.84,2.85v4.27h25.8v-4.27h-25.8m8.08-8.94v4.27h17.72v-4.27h-17.72m-6.92-2v4l5,2.2v-2.68l-5-3.51m-46.38-15.08c-8.56,0-12.94,4.3-12.94,12.38v6.75h25.87v-6.75c0-7.19-4.23-12.38-12.94-12.38m-74.53-2.77v4.77h22.52v.08l-22.52,9.53v6.25h28.68v-4.77H1437v-.08l22.35-9.49v-6.29h-28.68m133.95,6.36h.65v.86c0,5.4,1.2,9.32,6,9.32a5.08,5.08,0,0,0,5.2-5.3,5.7,5.7,0,0,0-2.68-5V1520a8.81,8.81,0,0,0,2.41-.24v-3.85a21.93,21.93,0,0,1-3.13.24h-7.74c-4.44,0-7.12,1.27-7.12,6.78a12.34,12.34,0,0,0,1.31,5.61l3.44-.24a8.17,8.17,0,0,1-1.72-4.85,3,3,0,0,1,3.37-3.3m6.88-14.65c1.38,0,1.75,1.2,1.75,2.75a11.4,11.4,0,0,1-1.17,4.44l3.54.21a14.35,14.35,0,0,0,.86-4.92c0-3.85-2-6.61-5.23-6.61-2.06,0-3.06,1.1-4.47,3.3l-1.34,2.1c-.79,1.24-1.31,2-2.27,2s-1.72-.72-1.72-2.44a9.78,9.78,0,0,1,.79-3.75l-3.3-.24a14.18,14.18,0,0,0-.72,4.44c0,3.75,2.58,6.12,5,6.12,2.79,0,3.92-2,5-3.75l1-1.75c.89-1.55,1.55-1.89,2.24-1.89m-72.86-8.73c-4.38,0-6.38,2.45-6.38,7.78v7.56h25.87v-7.9c0-4.6-2.56-8-7.27-8a5.84,5.84,0,0,0-6.19,4.89h-.07a5.77,5.77,0,0,0-6-4.3m-115.67,8,1.17,3.83h3.27v2.53h2.81v-2.53h8.7c3.33,0,4.63-1.6,4.63-4.44a5.91,5.91,0,0,0-.52-2.56h-2.72a3,3,0,0,1,.34,1.45c0,1.11-.49,1.73-2.19,1.73h-8.24v-3.18h-2.81v3.18h-4.44m66.2-12.86c-8.63,0-11.3,3.9-11.3,8.47,0,5.38,4.89,8.71,11.22,8.71,5.71,0,10.6-3,10.6-9.78a15.78,15.78,0,0,0-1.35-6.33l-4,.25a8.41,8.41,0,0,1,1.64,5.55c0,3.94-2.18,5.38-5.79,5.38v-12.25h-1m-69,3.42v3.82h23.14v-3.82H1394c-2,0-3.73-.71-3.73-2.72,0-1.57,1-2.19,3.46-2.19h9.53v-3.83H1393c-3.21,0-5.89,1.08-5.89,4.69a4.3,4.3,0,0,0,2.28,3.95v.09h-9.29m52.11-14.35,1.56,5.1h4.36v3.37h3.74V1486h11.59c4.44,0,6.16-2.14,6.16-5.92a7.85,7.85,0,0,0-.7-3.41h-3.62a4,4,0,0,1,.45,1.93c0,1.48-.66,2.3-2.92,2.3h-11v-4.23h-3.74v4.23h-5.92m125.88-10.64c-4.56,0-6.55,3-6.55,7.41v7.77h24.87v-4.56h-10.69v-1a3.23,3.23,0,0,1,2.6-3.46l8.09-2.46v-4.85l-9.48,3.24c-2.32.78-2.74,1.82-2.89,2.74H1564a5.58,5.58,0,0,0-5.84-4.81m-162.82-.74c-6.48,0-8.18,3.73-8.18,7s1.7,7,8.18,7c6.66,0,8.21-3.76,8.21-7s-1.54-7-8.21-7m105.1-1.6c-4.07,0-5.85,2.67-5.85,6.61v6.93h22.19v-4.07h-9.54v-.92a2.88,2.88,0,0,1,2.32-3.08l7.22-2.19v-4.32l-8.46,2.89c-2.07.7-2.45,1.62-2.58,2.45h-.09a5,5,0,0,0-5.21-4.29M1393,1454c-3.21,0-5.89,1.08-5.89,4.69a4.63,4.63,0,0,0,2.68,4.23v.06c-.8,0-1.64.09-2.44.12v3.58a21.75,21.75,0,0,1,2.62-.12h13.26v-3.83H1394c-2,0-3.73-.71-3.73-2.72,0-1.57,1-2.19,3.46-2.19h9.53V1454H1393m174.58-2.28c-7.48,0-9.8,3.39-9.8,7.34,0,4.67,4.24,7.55,9.73,7.55,5,0,9.19-2.56,9.19-8.48a13.64,13.64,0,0,0-1.18-5.49l-3.49.21a7.29,7.29,0,0,1,1.42,4.81c0,3.42-1.89,4.67-5,4.67v-10.62h-.86m-58.73-.34c-6.68,0-8.74,3-8.74,6.55,0,4.17,3.78,6.74,8.68,6.74,4.42,0,8.2-2.29,8.2-7.57a12.19,12.19,0,0,0-1-4.9l-3.12.19a6.51,6.51,0,0,1,1.27,4.29c0,3.05-1.69,4.17-4.48,4.17v-9.48h-.76m63.94,384.93h-17.27v-1.48c0-5,3.37-7.19,8.64-7.19s8.64,2.24,8.64,7.19v1.48m-7-20.5c-2.34,0-4.71-.93-4.71-3.17,0-1.93,1.58-3,4.71-3v6.12m0-29.31c-2.34,0-4.71-.93-4.71-3.16,0-1.93,1.58-3,4.71-3v6.12m1.51-55.73c-3,0-6.09-.65-6.09-3.41s3.13-3.37,6.09-3.37,6.12.62,6.12,3.37-3.16,3.41-6.12,3.41m-.14-45.14c-3.54,0-5.85-.82-5.85-3.2s2.51-3.3,6-3.3,6.05.86,6.05,3.37-2.07,3.13-6.16,3.13m-1.38-18.34c-2.34,0-4.71-.93-4.71-3.16,0-1.93,1.58-3,4.71-3v6.12m-51.32-9.31h-3.06c-1.61-3.12-3.28-6.23-5-9.3,4.94.34,8,2.78,8,7.7v1.59m56.38-16.25c-2.58,0-3.34-2.17-3.34-5.81v-.38h1c3.16,0,5.06.93,5.06,3.47a2.56,2.56,0,0,1-2.72,2.72m-3.54-35.92c-3,0-6.09-.65-6.09-3.4s3.13-3.37,6.09-3.37,6.12.62,6.12,3.37-3.16,3.4-6.12,3.4m-54.95-5.7c-2.78,0-3.59-2.34-3.59-6.27v-.41h1.07c3.41,0,5.45,1,5.45,3.74a2.76,2.76,0,0,1-2.93,2.93M1454,1577.32q-2.25-2.37-4.55-4.69h.48c2.38,0,4.55.69,4.55,3.07a2.48,2.48,0,0,1-.48,1.62m116.85-15.93c-2.58,0-3.34-2.17-3.34-5.81v-.38h1c3.16,0,5.06.93,5.06,3.47a2.56,2.56,0,0,1-2.72,2.72m-122.44-1.25c-3.72,0-6.14-.87-6.14-3.36s2.64-3.47,6.25-3.47,6.36.9,6.36,3.54-2.17,3.29-6.46,3.29m60.13-8.38c-3.19,0-6.56-.7-6.56-3.67s3.37-3.63,6.56-3.63,6.6.67,6.6,3.63-3.41,3.67-6.6,3.67m5.93-20.87h-18.61v-1.59c0-5.34,3.63-7.75,9.31-7.75s9.3,2.41,9.3,7.75v1.59m56.38-4.6c-2.58,0-3.34-2.17-3.34-5.81v-.38h1c3.16,0,5.06.93,5.06,3.48a2.56,2.56,0,0,1-2.72,2.72m-56.38-18.83h-7.93V1505c0-2.93,1.71-4.11,4-4.11a3.64,3.64,0,0,1,4,4v2.63m-11.42,0h-7.34v-2.34c0-2.26,1.3-3.82,3.48-3.82A3.62,3.62,0,0,1,1503,1505v2.45m-56.14-3.38c-2.79,0-5.63-1.11-5.63-3.78,0-2.3,1.89-3.53,5.63-3.53v7.31m115.49-23.2H1555V1479c0-2.57.71-4.06,3.56-4.06,2.53,0,3.78,1.64,3.78,4.06v1.85m-167.09-1.33c-2.65,0-5.46-.59-5.46-3.05s2.81-3,5.46-3,5.49.55,5.49,3-2.84,3.05-5.49,3.05m108.92-2.15h-6.55v-1.65c0-2.29.64-3.63,3.18-3.63,2.26,0,3.37,1.46,3.37,3.63v1.65m61.45-15.11c-2.42,0-4.88-1-4.88-3.28,0-2,1.64-3.06,4.88-3.06v6.34m-58.53-1.48c-2.16,0-4.36-.86-4.36-2.93,0-1.78,1.46-2.73,4.36-2.73v5.66" transform="translate(-761.88 -1265.4)"/><path class="cls-5" d="M1620.78,1924h-43.52v-4.32H1558V1924h-3.62v-4.4h-4.55v4.4h-30.12v-2.68a28.6,28.6,0,0,0-3.32-.17V1921a5.75,5.75,0,0,0,3.65-5.68c0-5.31-5.06-7.51-11-7.51-7,0-11,2.78-11,7.39a5.74,5.74,0,0,0,3.4,5.52v.08h-12.82V1924h-31.19a13,13,0,0,0-.58-1.63l-2.93.18a5.47,5.47,0,0,1,.8,1.45h-3.81v-2.4h-.72c-3.64,0-5.82,1-7,2.4h-6a266,266,0,0,0-30.49-115.1l-.27-.52v0q-2.25-4.24-4.63-8.39a5.39,5.39,0,0,0,.48-2.22,4.64,4.64,0,0,0-2.87-4.48v-.07H1401c2.67,0,5.34.63,5.34,4.48a10.76,10.76,0,0,1-1.45,5l3.62.23a17.08,17.08,0,0,0,1.05-5.83c0-6.22-3.79-7.84-9.09-7.84h-5.2q-3.13-4.89-6.45-9.63a5.3,5.3,0,0,0,.71,0,4.89,4.89,0,0,0,4.57-2.85l.9-1.62c.85-1.55,1.4-2.27,2.64-2.27a2.41,2.41,0,0,1,2.52,2.64,7.11,7.11,0,0,1-1.07,3.69l2.85.18a8,8,0,0,0,.77-4c0-3.32-1.7-5.84-5.24-5.84-2.45,0-3.54,1-4.69,3l-1,1.87c-.55,1-1,1.85-2.35,1.85s-2-.82-2-2.42a8.27,8.27,0,0,1,.75-3.27l-2.67-.15a11.4,11.4,0,0,0-.62,3.5,274.8,274.8,0,0,0-439.73-2,267.89,267.89,0,0,0-42.66,83.79,248.13,248.13,0,0,0-41.53-3.53h0a247.58,247.58,0,0,0-99,20.49V1714.35a324.13,324.13,0,0,1,43.95-3q10.32,0,20.47.66a323.29,323.29,0,0,1,33.12,3.89c25.51-84.26,82.4-155.11,157.28-199.29a356.48,356.48,0,0,1,370.67,6v3.2l3.29-1.08a353.32,353.32,0,0,1,54.27,43.44h-5.67v4.48h10.17q2.3,2.32,4.55,4.69c-.59.73-1.73,1.05-3.56,1.05h-11.16v4.48h12c2.48,0,4.69-.55,5.91-2.14a349.64,349.64,0,0,1,42.37,56.06l-.53.14v4.74l2.89-1c.57,1,1.13,1.92,1.69,2.89-7.52.51-11.36,4.76-11.36,12.33v6.75h21.59a343.38,343.38,0,0,1,35.84,153.17h0q0,7.89-.37,15.7c-.55,11.77-1.7,23.39-3.39,34.83h0c4.69-.54,9.4-1,14.16-1.31a10.76,10.76,0,0,0,.95.61v.07c-1,0-2,.11-2.95.15v4.33a26.2,26.2,0,0,1,3.17-.15h16v-4.63h-11.19a6.48,6.48,0,0,1-2.9-.57c3.69-.2,7.4-.31,11.14-.31a243.79,243.79,0,0,1,46.46,4.44V1924m-170.87-18.39c-4.27,0-7.92,1.58-7.92,5.41a4.14,4.14,0,0,0,2.63,4.09v.09a20.51,20.51,0,0,0-2.39.12v3.47a19.73,19.73,0,0,1,2.63-.12h19.21v-3.7h-8.66v-.06a4.14,4.14,0,0,0,2.45-4c0-3.32-2.93-5.32-7.95-5.32m122.24,2.16c1.49,0,1.9,1.31,1.9,3a12.36,12.36,0,0,1-1.27,4.81l3.84.22a15.57,15.57,0,0,0,.93-5.34c0-4.18-2.13-7.16-5.67-7.16-2.24,0-3.32,1.19-4.85,3.58l-1.46,2.28c-.86,1.34-1.42,2.17-2.46,2.17s-1.87-.78-1.87-2.65a10.61,10.61,0,0,1,.86-4.07l-3.58-.26a15.42,15.42,0,0,0-.78,4.81c0,4.07,2.8,6.64,5.45,6.64,3,0,4.25-2.13,5.41-4.07l1.12-1.9c1-1.68,1.68-2.05,2.43-2.05m-63.1-22.21c-8.71,0-11,5-11,9.38s2.28,9.42,11,9.42c9,0,11-5.06,11-9.42s-2.07-9.38-11-9.38m40.83,9.16v4.78h4.55v-4.78h-4.55m8.17.07v4.63h19.22v-4.63H1558m-121.29-4.06v3.83h20.85v-10.7h-3v6.87h-17.81m130.88-16.95c-7.84,0-9.89,4.52-9.89,8.43s2.05,8.47,9.89,8.47c8.06,0,9.93-4.55,9.93-8.47s-1.87-8.43-9.93-8.43m-17.09,3.92V1882l5.37,2.39v-2.91l-5.37-3.81m-100.34-8.12c-6.27,0-8.22,2.84-8.22,6.15,0,3.91,3.56,6.33,8.16,6.33,4.15,0,7.71-2.15,7.71-7.11a11.45,11.45,0,0,0-1-4.6l-2.93.18a6.12,6.12,0,0,1,1.2,4c0,2.87-1.58,3.91-4.21,3.91v-8.9h-.72m48,.71a5.58,5.58,0,0,0-.12.87c0,3.19,2.57,4.81,4.23,5.44v.08c-1.29,0-2.61.12-3.9.17v4.65a29,29,0,0,1,3.53-.17h17.84v-5.15h-11.7c-4,0-5.27-2.32-5.27-4.44a5.36,5.36,0,0,1,.21-1.45h-4.81m-50.63-11.62h.57v.75c0,4.69,1,8.1,5.23,8.1a4.41,4.41,0,0,0,4.51-4.6,5,5,0,0,0-2.33-4.3v-.06a7.65,7.65,0,0,0,2.09-.21V1855a18.92,18.92,0,0,1-2.72.21h-6.72c-3.85,0-6.18,1.11-6.18,5.89a10.73,10.73,0,0,0,1.13,4.87l3-.21a7.09,7.09,0,0,1-1.49-4.21,2.65,2.65,0,0,1,2.93-2.87M1506,1850c-4.32,0-7.92,1.45-7.92,6.31a6.23,6.23,0,0,0,3.61,5.68v.08c-1.08,0-2.2.13-3.28.17V1867a29.22,29.22,0,0,1,3.53-.17h17.84v-5.14h-12.45c-2.74,0-5-1-5-3.65,0-2.12,1.37-2.95,4.65-2.95h12.82V1850H1506m-63.9-6.3a3.94,3.94,0,0,0-.09.63,4.29,4.29,0,0,0,3,3.91v.06c-.93,0-1.88.09-2.81.12v3.35a21.12,21.12,0,0,1,2.54-.12h12.85v-3.71h-8.43c-2.87,0-3.79-1.67-3.79-3.2a3.82,3.82,0,0,1,.15-1h-3.47m5.62-14.61c-3.11,0-5.71,1-5.71,4.54a4.49,4.49,0,0,0,2.6,4.09v.06c-.78,0-1.58.09-2.36.12v3.47a20.88,20.88,0,0,1,2.54-.12h12.85v-3.7h-9c-2,0-3.61-.69-3.61-2.63,0-1.52,1-2.12,3.35-2.12h9.23v-3.71h-9.92m38.44-10.48v6.37h24.55c2.74,0,5,.85,5,3.93a7.13,7.13,0,0,1-.65,2.94h5.48a13.16,13.16,0,0,0,.85-4.58c0-4.63-3.09-8.66-10.65-8.66h-24.6m-50.45,3v3.82h3.65v-3.82h-3.65m6.54.06v3.71h15.39v-3.71h-15.39m5.47-15.86c-3.11,0-5.71,1-5.71,4.54a4.49,4.49,0,0,0,2.6,4.09v.06c-.78,0-1.58.09-2.36.12v3.47a20.88,20.88,0,0,1,2.54-.12h12.85v-3.71h-9c-2,0-3.61-.69-3.61-2.63,0-1.52,1-2.12,3.35-2.12h9.23v-3.7h-9.92m47.55,1V1813h16.53c5.18,0,9.51-1.74,9.51-7.57,0-4-2.44-5.63-4.33-6.82l0,.05,0-.15c1.29,0,2.64-.15,3.93-.2v-5.77a35,35,0,0,1-4.23.2h-21.41v6.17h14.69c3.29,0,6.27.95,6.27,4.23,0,2.59-1.64,3.68-5.58,3.68h-15.39m-53-17.18V1793c.81,0,1.58.12,2.39.12v.12a4.4,4.4,0,0,0-2.63,4.06c0,4,3.73,5.56,8,5.56,6.22,0,7.65-3.23,7.65-5.38a4.21,4.21,0,0,0-2.6-4.06v-.06h1.46c2.42,0,4.84.57,4.84,4.06A9.77,9.77,0,0,1,1460,1802l3.29.21a15.5,15.5,0,0,0,1-5.29c0-5.65-3.44-7.11-8.25-7.11h-11.35c-.81,0-1.61-.06-2.42-.12M1508,1765.3c-7.12,0-13.19,2.64-13.19,9a6.91,6.91,0,0,0,4.38,6.82v.15a34.21,34.21,0,0,0-4,.2v5.77a33.09,33.09,0,0,1,4.38-.2h32v-6.17h-14.44v-.1a6.89,6.89,0,0,0,4.08-6.62c0-5.53-4.88-8.86-13.24-8.86m-74.84-2.76a16.48,16.48,0,0,0-.9,5.27c0,4.22,2.35,7.94,6.86,7.94a7.08,7.08,0,0,0,6.61-4.12l1.3-2.35c1.23-2.24,2-3.28,3.83-3.28,2.53,0,3.65,1.8,3.65,3.83a10.3,10.3,0,0,1-1.55,5.34l4.12.25a11.53,11.53,0,0,0,1.12-5.74c0-4.8-2.46-8.45-7.58-8.45-3.54,0-5.13,1.41-6.79,4.37l-1.52,2.71c-.79,1.41-1.52,2.67-3.39,2.67s-3-1.19-3-3.5a12,12,0,0,1,1.08-4.73l-3.86-.22m-36.9-5.64c-5.24,0-6.86,2.37-6.86,5.14,0,3.27,3,5.29,6.81,5.29,3.47,0,6.44-1.8,6.44-5.94a9.54,9.54,0,0,0-.83-3.84l-2.45.15a5.1,5.1,0,0,1,1,3.37c0,2.4-1.32,3.27-3.52,3.27v-7.44h-.6m98.95-16.5v6l19.37,4.93v.1l-19.37,5.18V1763l25.89-8.51,2.19.45c2.64.8,3.78,1.59,3.74,3.43a6.49,6.49,0,0,1-.5,2.34l4.73.35a12.62,12.62,0,0,0,.65-3.93c0-4.13-2.64-6.22-6.17-7.32l-30.52-9.36m-46.34,2.46c-7.58,0-9.93,3.43-9.93,7.44,0,4.73,4.3,7.65,9.86,7.65,5,0,9.31-2.6,9.31-8.59a13.85,13.85,0,0,0-1.19-5.56l-3.54.22a7.39,7.39,0,0,1,1.45,4.87c0,3.47-1.91,4.73-5.09,4.73v-10.76h-.87m-59.4,4.9a3.19,3.19,0,0,0-.08.52,3.59,3.59,0,0,0,2.55,3.27v.05c-.77,0-1.57.07-2.35.1v2.79a17.72,17.72,0,0,1,2.12-.1h10.73v-3.1h-7c-2.4,0-3.17-1.4-3.17-2.67a3.2,3.2,0,0,1,.13-.87h-2.9m.13-12.4v3l9.91,2.65v0l-9.91,2.62v3.19l12.85-3.92v-3.64l-12.85-3.94m49.45-5.72a4.78,4.78,0,0,0-.11.76,5.19,5.19,0,0,0,3.68,4.73v.07c-1.12,0-2.28.11-3.39.14v4a25.19,25.19,0,0,1,3.07-.14h15.52v-4.48h-10.18c-3.47,0-4.59-2-4.59-3.86a4.65,4.65,0,0,1,.18-1.26h-4.19m49-.75,1.89,6.17h5.28v4.08h4.53v-4.08h14c5.38,0,7.47-2.59,7.47-7.17a9.52,9.52,0,0,0-.85-4.13h-4.38a4.86,4.86,0,0,1,.55,2.34c0,1.79-.8,2.79-3.54,2.79h-13.29v-5.13h-4.53v5.13h-7.17m-91.78-5.27c-5.24,0-6.86,2.37-6.86,5.14,0,3.27,3,5.29,6.81,5.29,3.47,0,6.44-1.8,6.44-5.94a9.54,9.54,0,0,0-.83-3.84l-2.45.15a5.1,5.1,0,0,1,1,3.37c0,2.4-1.32,3.27-3.52,3.27v-7.44h-.6m43-11.93V1716l14.33,3.83v.07l-14.33,3.79v4.62l18.59-5.67v-5.27l-18.59-5.71m-49.76,2.8a3.18,3.18,0,0,0-.08.52,3.59,3.59,0,0,0,2.55,3.27v0c-.77,0-1.57.07-2.35.1v2.79a17.5,17.5,0,0,1,2.12-.1h10.73V1718h-7c-2.4,0-3.17-1.4-3.17-2.67a3.2,3.2,0,0,1,.13-.87h-2.9m119-14.78c-10.46,0-13.69,4.73-13.69,10.26,0,6.52,5.93,10.55,13.59,10.55,6.92,0,12.85-3.59,12.85-11.85a19.09,19.09,0,0,0-1.64-7.67l-4.88.3a10.2,10.2,0,0,1,2,6.72c0,4.78-2.64,6.52-7,6.52v-14.84h-1.2m-124.77,9.34v3.09h18.72v-3.09h-18.72m47.59-4.72V1709h4.41v-4.62h-4.41m7.91.07v4.48h18.59v-4.48h-18.59m-43-8.52c-5.24,0-6.86,2.37-6.86,5.14,0,3.27,3,5.29,6.81,5.29,3.47,0,6.44-1.8,6.44-5.94a9.53,9.53,0,0,0-.83-3.84l-2.45.15a5.11,5.11,0,0,1,1,3.37c0,2.4-1.32,3.27-3.52,3.27v-7.44h-.6m43.44-8.34a12.22,12.22,0,0,0-.76,3.9c0,6.25,4.3,9,9.6,9s9.57-2.6,9.57-8.74a12.74,12.74,0,0,0-.76-4.4l-3.54.25a7.18,7.18,0,0,1,.9,3.18c0,3.43-2.67,5.09-6.14,5.09-4,0-6.25-1.48-6.25-4.87a7.17,7.17,0,0,1,.9-3.14l-3.54-.25m55.26-6a6.72,6.72,0,0,0-.15,1c0,3.83,3.09,5.78,5.08,6.52v.1c-1.54,0-3.14.15-4.68.2v5.58a34.83,34.83,0,0,1,4.23-.2h21.41v-6.17h-14c-4.78,0-6.32-2.79-6.32-5.33a6.42,6.42,0,0,1,.25-1.74H1495m-95.93,7.12c1,0,1.27.87,1.27,2a8.28,8.28,0,0,1-.85,3.22l2.57.15a10.42,10.42,0,0,0,.62-3.57c0-2.79-1.42-4.79-3.79-4.79-1.5,0-2.22.8-3.24,2.4l-1,1.52c-.57.9-.95,1.45-1.65,1.45s-1.25-.52-1.25-1.77a7.09,7.09,0,0,1,.57-2.72l-2.4-.17a10.31,10.31,0,0,0-.52,3.22c0,2.72,1.87,4.44,3.65,4.44,2,0,2.84-1.42,3.62-2.72l.75-1.27c.65-1.12,1.12-1.37,1.62-1.37m32.29-9.05v4.62h4.41v-4.62h-4.41m7.91.07v4.48h18.59v-4.48h-18.59m-40.2-1.17c1,0,1.27.87,1.27,2a8.28,8.28,0,0,1-.85,3.22l2.57.15a10.42,10.42,0,0,0,.62-3.57c0-2.8-1.42-4.79-3.79-4.79-1.5,0-2.22.8-3.24,2.4l-1,1.52c-.57.9-.95,1.45-1.65,1.45s-1.25-.52-1.25-1.77a7.09,7.09,0,0,1,.57-2.72l-2.4-.17a10.31,10.31,0,0,0-.52,3.22c0,2.72,1.87,4.44,3.65,4.44,2,0,2.84-1.42,3.62-2.72l.75-1.27c.65-1.12,1.12-1.37,1.62-1.37m49.48-19.15c-7.58,0-9.57,4.37-9.57,8.16s2,8.2,9.57,8.2c7.8,0,9.6-4.4,9.6-8.2s-1.81-8.16-9.6-8.16m-58.3-6.48c-3.43,0-5.51,1.95-5.51,5.69v5.2h18.13v-3.33h-7.09v-1.87c0-3.74-2.1-5.69-5.53-5.69m62.67-4.1c1.44,0,1.84,1.26,1.84,2.89a12,12,0,0,1-1.23,4.66l3.72.22a15.05,15.05,0,0,0,.9-5.16c0-4-2.06-6.93-5.49-6.93-2.17,0-3.21,1.15-4.69,3.47l-1.41,2.2c-.83,1.3-1.37,2.09-2.38,2.09s-1.8-.76-1.8-2.56a10.26,10.26,0,0,1,.83-3.94l-3.47-.25a14.91,14.91,0,0,0-.76,4.66c0,3.93,2.71,6.43,5.27,6.43,2.92,0,4.12-2.06,5.23-3.93l1.08-1.84c.94-1.62,1.62-2,2.35-2m-63.55-5.2a3.46,3.46,0,0,0-.08.54,3.73,3.73,0,0,0,2.65,3.4v.05c-.81,0-1.64.08-2.44.1v2.91a18.23,18.23,0,0,1,2.21-.1h11.17v-3.22h-7.33c-2.49,0-3.3-1.45-3.3-2.78a3.34,3.34,0,0,1,.13-.91h-3m7.07-12.36c-5.46,0-7.14,2.47-7.14,5.35,0,3.4,3.09,5.51,7.09,5.51,3.61,0,6.7-1.87,6.7-6.18a10,10,0,0,0-.86-4l-2.55.16a5.32,5.32,0,0,1,1,3.51c0,2.49-1.38,3.4-3.66,3.4v-7.74h-.62m36.92-16.16a16,16,0,0,0-1,5.6c0,7.51,5.6,11.44,13,11.44s13-3.94,13-11.59a14,14,0,0,0-.9-5.45l-4.22.25a7.82,7.82,0,0,1,1.3,4.77c0,3.83-2.6,7.11-9.13,7.11s-9.13-3.29-9.13-7.11a9.58,9.58,0,0,1,1.37-4.77l-4.15-.25m-50,2.68v3.22h8v.05a3.6,3.6,0,0,0-2.13,3.45c0,2.88,2.55,4.62,6.91,4.62,3.72,0,6.88-1.38,6.88-4.7a3.6,3.6,0,0,0-2.29-3.56v-.08a17.91,17.91,0,0,0,2.08-.1v-3a17.22,17.22,0,0,1-2.29.1h-17.2m.42-6.55v3.33H1387v-3.33h-3.17m5.69.05v3.22h13.38v-3.22h-13.38m41.29-4.48v4.48h27.08v-4.48h-27.08m-41-7.65a8.78,8.78,0,0,0-.55,2.8c0,4.49,3.09,6.47,6.91,6.47s6.88-1.87,6.88-6.29a9.16,9.16,0,0,0-.54-3.17l-2.55.18a5.16,5.16,0,0,1,.65,2.29c0,2.47-1.92,3.66-4.42,3.66-2.86,0-4.49-1.07-4.49-3.51a5.14,5.14,0,0,1,.65-2.26l-2.55-.18m58.71-12.68c-7.58,0-9.57,4.37-9.57,8.16s2,8.19,9.57,8.19c7.8,0,9.6-4.4,9.6-8.19s-1.81-8.16-9.6-8.16m-58.71,1.61a8.78,8.78,0,0,0-.55,2.8c0,4.49,3.09,6.47,6.91,6.47s6.88-1.87,6.88-6.29a9.16,9.16,0,0,0-.54-3.17l-2.55.18a5.16,5.16,0,0,1,.65,2.29c0,2.47-1.92,3.66-4.42,3.66-2.86,0-4.49-1.07-4.49-3.51a5.14,5.14,0,0,1,.65-2.26l-2.55-.18m-6-5.74v3.33H1387v-3.33h-3.17m5.69.05v3.22h13.38v-3.22h-13.38m6.67-14.62c-5.45,0-6.88,3.14-6.88,5.87s1.43,5.9,6.88,5.9c5.61,0,6.91-3.17,6.91-5.9s-1.3-5.87-6.91-5.87m-11.9,2.73v3l3.74,1.66v-2l-3.74-2.65m10-15.85c-2.7,0-5,.91-5,3.95a3.9,3.9,0,0,0,2.26,3.56v.05c-.68,0-1.38.08-2.05.1v3a18.23,18.23,0,0,1,2.21-.1h11.17v-3.22h-7.79c-1.71,0-3.14-.6-3.14-2.29,0-1.32.86-1.84,2.91-1.84h8v-3.22h-8.62m-6-27.62c-4.07,0-6.54,2.31-6.54,6.76v6.17h21.53v-3.95h-8.42v-2.22c0-4.44-2.5-6.76-6.57-6.76M1509,1920.79c-4.15,0-7.18-1.16-7.18-4s2.78-3.86,7.05-3.86c4.94,0,7.43.79,7.43,3.77s-3.28,4.07-7.3,4.07m-59-5.86c-2.9,0-5.26-.75-5.26-2.93s1.79-2.72,5.35-2.72c3.08,0,5.08.72,5.08,2.78s-2.18,2.87-5.17,2.87M1509,1899c-3.57,0-7.34-.79-7.34-4.11s3.78-4.07,7.34-4.07,7.38.75,7.38,4.07-3.82,4.11-7.38,4.11m58.59-13.14c-3.21,0-6.6-.71-6.6-3.69s3.4-3.66,6.6-3.66,6.64.67,6.64,3.66-3.43,3.69-6.64,3.69m-119-7.43c-2,0-4.09-.81-4.09-2.75,0-1.67,1.38-2.57,4.09-2.57v5.32M1453,1864c-2.24,0-2.9-1.88-2.9-5v-.33h.87c2.75,0,4.39.81,4.39,3A2.23,2.23,0,0,1,1453,1864m-3.23-65c-3.14,0-4.93-.75-5-2.69,0-1.76,1.7-3,4.93-3,3.5,0,5.17.93,5.17,3.26,0,1.26-1.52,2.42-5.14,2.42m58.39-18.15c-4.83,0-8.76-1.25-8.76-4.88s3-4.53,8.91-4.53c5.13,0,8.46,1.19,8.46,4.63s-3.63,4.78-8.61,4.78M1395,1764.33c-1.7,0-3.42-.67-3.42-2.3,0-1.4,1.15-2.15,3.42-2.15v4.44m52-10.71c-2.45,0-4.95-1-4.95-3.32,0-2,1.66-3.11,4.95-3.11v6.43m-52-22.55c-1.7,0-3.42-.67-3.42-2.3,0-1.4,1.15-2.15,3.42-2.15v4.44m110.9-16.51c-3.39,0-6.82-1.34-6.82-4.58,0-2.79,2.29-4.28,6.82-4.28v8.86M1395,1703.32c-1.7,0-3.42-.67-3.42-2.3,0-1.4,1.15-2.15,3.42-2.15v4.44m53.59-32.27c-3.1,0-6.39-.69-6.39-3.57s3.29-3.54,6.39-3.54,6.43.65,6.43,3.54-3.32,3.57-6.43,3.57m-55.31-10.65h-5.95v-1.25c0-2.08,1-3,3-3s3,.91,3,3v1.25m118.17-2.47h-15.55v-1.59c0-5.34,3.63-7.75,9.31-7.75q.65,0,1.27,0c1.7,3.07,3.37,6.18,5,9.3m-116.38-19c-1.77,0-3.56-.7-3.56-2.39,0-1.45,1.2-2.23,3.56-2.23v4.62m1-13.09c-2.68,0-4.42-.62-4.42-2.42s1.9-2.49,4.49-2.49,4.57.65,4.57,2.55-1.56,2.36-4.65,2.36m52.48-27.7c-3.1,0-6.39-.69-6.39-3.57s3.29-3.54,6.39-3.54,6.43.65,6.43,3.54-3.32,3.57-6.43,3.57m-52.38-22c-2.23,0-4.6-.49-4.6-2.57s2.36-2.55,4.6-2.55,4.62.47,4.62,2.55-2.39,2.57-4.62,2.57m-4.36-40.21h-7.07v-1.48c0-2.47,1.17-3.55,3.52-3.55s3.55,1.08,3.55,3.55v1.48" transform="translate(-761.88 -1265.4)"/><path class="cls-6" d="M1437.22,1924h-34.74a10.44,10.44,0,0,0,.07-1.21,12.65,12.65,0,0,0-1.09-5.07l-3.23.2a6.74,6.74,0,0,1,1.32,4.45,6.15,6.15,0,0,1-.2,1.64h-4.45v-7.14h-.79c-6.92,0-9.06,3.13-9.06,6.79,0,.12,0,.24,0,.36H1237.14a189.8,189.8,0,0,0-258.05,0H761.88v-51.25a247.58,247.58,0,0,1,99-20.49h0a248.15,248.15,0,0,1,41.53,3.53A267.89,267.89,0,0,1,945.09,1772a274.81,274.81,0,0,1,439.73,2s0,.09,0,.14c0,2.69,1.38,5.08,4,5.44q3.33,4.74,6.45,9.63H1388c-.89,0-1.78-.07-2.67-.13v3.69c.89,0,1.75.13,2.64.13v.13c-1.48.86-2.9,2-2.9,4.48,0,4.45,4.12,6.13,8.79,6.13,4.89,0,7.1-1.81,8-3.71q2.39,4.15,4.63,8.39v0l.27.52a265.89,265.89,0,0,1,30.49,115.1m-57.92-23.48v4.22h23V1892.9h-3.36v7.58h-19.63m14.82-23.32c-6.92,0-9.06,3.13-9.06,6.78,0,4.32,3.92,7,9,7,4.58,0,8.5-2.37,8.5-7.84a12.65,12.65,0,0,0-1.09-5.07l-3.23.2a6.74,6.74,0,0,1,1.32,4.45c0,3.16-1.75,4.32-4.65,4.32v-9.82h-.79m-2.93-12h.63v.82c0,5.17,1.15,8.93,5.76,8.93a4.87,4.87,0,0,0,5-5.07,5.45,5.45,0,0,0-2.57-4.74V1865a8.45,8.45,0,0,0,2.31-.23v-3.69a20.89,20.89,0,0,1-3,.23h-7.41c-4.25,0-6.82,1.22-6.82,6.49a11.82,11.82,0,0,0,1.25,5.37l3.29-.23a7.82,7.82,0,0,1-1.65-4.64,2.92,2.92,0,0,1,3.23-3.16m-6-16.5a4.33,4.33,0,0,0-.1.69,4.73,4.73,0,0,0,3.36,4.32v.07c-1,0-2.08.1-3.1.13v3.69a22.88,22.88,0,0,1,2.8-.13h14.16v-4.08H1393c-3.16,0-4.18-1.84-4.18-3.52a4.22,4.22,0,0,1,.16-1.15h-3.82m6.19-16.11c-3.43,0-6.29,1.15-6.29,5a5,5,0,0,0,2.87,4.51v.07c-.86,0-1.75.1-2.6.13v3.82a22.9,22.9,0,0,1,2.8-.13h14.16v-4.08h-9.88c-2.17,0-4-.76-4-2.9,0-1.68,1.09-2.34,3.69-2.34h10.18v-4.09h-10.94m-13.24-8.24v4.22h4v-4.22h-4m7.21.07v4.08h17v-4.08h-17m6-17.49c-3.43,0-6.29,1.15-6.29,5a5,5,0,0,0,2.87,4.51v.07c-.86,0-1.75.1-2.6.13v3.82a23.12,23.12,0,0,1,2.8-.13h14.16v-4.08h-9.88c-2.17,0-4-.76-4-2.9,0-1.68,1.09-2.34,3.69-2.34h10.18v-4.08h-10.94m1,117.1h-4.49a2.91,2.91,0,0,1,0-.36c0-1.84,1.52-2.83,4.51-2.83V1924m0-37c-2.24,0-4.51-.89-4.51-3,0-1.84,1.52-2.83,4.51-2.83V1887m4.84-15.91c-2.47,0-3.2-2.08-3.2-5.57v-.36h1c3,0,4.84.89,4.84,3.33a2.46,2.46,0,0,1-2.6,2.6m-3.56-71.64c-3.46,0-5.44-.82-5.47-3,0-1.95,1.88-3.3,5.43-3.3,3.85,0,5.7,1,5.7,3.59,0,1.38-1.68,2.67-5.66,2.67" transform="translate(-761.88 -1265.4)"/><path class="cls-7" d="M1237.14,1924H979.09a189.8,189.8,0,0,1,258.05,0" transform="translate(-761.88 -1265.4)"/></g><rect class="cls-8" x="76.23" y="198.42" width="142.4" height="32.51"/><text class="cls-9" transform="translate(81.78 226.48)">1ª edición</text><g class="cls-2"><path class="cls-10" d="M1577.26,1924H1558v-4.32h19.22V1924m-22.84,0h-4.55v-4.4h4.55v4.4m22.2-8.2-3.84-.22a12.36,12.36,0,0,0,1.27-4.81c0-1.68-.41-3-1.9-3-.75,0-1.45.37-2.43,2.05l-1.12,1.9c-1.16,1.94-2.39,4.07-5.41,4.07-2.65,0-5.45-2.57-5.45-6.64a15.42,15.42,0,0,1,.78-4.81l3.58.26a10.61,10.61,0,0,0-.86,4.07c0,1.87.71,2.65,1.87,2.65s1.6-.82,2.46-2.17l1.46-2.28c1.53-2.39,2.61-3.58,4.85-3.58,3.54,0,5.67,3,5.67,7.16a15.57,15.57,0,0,1-.93,5.34m-22.2-16.3h-4.55v-4.78h4.55v4.78m22.84-.08H1558v-4.63h19.22v4.63m-9.63-8.73c-7.84,0-9.89-4.55-9.89-8.47s2.05-8.43,9.89-8.43c8.06,0,9.93,4.52,9.93,8.43s-1.87,8.47-9.93,8.47m0-12.13c-3.21,0-6.6.67-6.6,3.66s3.4,3.69,6.6,3.69,6.64-.71,6.64-3.69-3.43-3.66-6.64-3.66m-11.72,5.86-5.37-2.39v-4.33l5.37,3.81v2.91" transform="translate(-761.88 -1265.4)"/></g><path class="cls-11" d="M1560,1865.08a5.27,5.27,0,0,1-2.3-4.51c0-4.36,3.25-5.67,7.13-5.67h12.39v4.63h-11.53c-2.95,0-4.18.75-4.18,2.65a2.83,2.83,0,0,0,1.62,2.71l-3.12.19" transform="translate(-761.88 -1265.4)"/><path class="cls-10" d="M1558,1870.24v-4.33c1,0,2-.15,2.95-.15v-.07a10.76,10.76,0,0,1-.95-.61l3.13-.19a6.48,6.48,0,0,0,2.9.57h11.19v4.63h-16a26.2,26.2,0,0,0-3.17.15" transform="translate(-761.88 -1265.4)"/><path class="cls-10" d="M1389.56,1779.63a5.3,5.3,0,0,1-.71,0q-2-2.82-4-5.59a11.4,11.4,0,0,1,.62-3.5l2.67.15a8.27,8.27,0,0,0-.75,3.27c0,1.6.85,2.42,2,2.42s1.8-.87,2.35-1.85l1-1.87c1.15-2,2.25-3,4.69-3,3.54,0,5.24,2.52,5.24,5.84a8,8,0,0,1-.77,4l-2.85-.18a7.11,7.11,0,0,0,1.07-3.69,2.41,2.41,0,0,0-2.52-2.64c-1.25,0-1.8.72-2.64,2.27l-.9,1.62a4.89,4.89,0,0,1-4.57,2.85" transform="translate(-761.88 -1265.4)"/><path class="cls-12" d="M1388.85,1779.58c-2.65-.36-4-2.75-4-5.44,0,0,0-.1,0-.14q2,2.76,4,5.59" transform="translate(-761.88 -1265.4)"/><g class="cls-2"><path class="cls-10" d="M1396.25,1767.33c-3.84,0-6.81-2-6.81-5.29,0-2.77,1.62-5.14,6.86-5.14h.6v7.44c2.2,0,3.52-.87,3.52-3.27a5.1,5.1,0,0,0-1-3.37l2.45-.15a9.54,9.54,0,0,1,.83,3.84c0,4.14-3,5.94-6.44,5.94m-1.3-7.44c-2.27,0-3.42.75-3.42,2.15,0,1.62,1.72,2.3,3.42,2.3v-4.44m-5.32-5.39v-2.79c.77,0,1.57-.1,2.35-.1v-.05a3.59,3.59,0,0,1-2.55-3.27,3.19,3.19,0,0,1,.08-.52h2.9a3.2,3.2,0,0,0-.12.87c0,1.27.77,2.67,3.17,2.67h7v3.1h-10.73a17.72,17.72,0,0,0-2.12.1m0-7.63v-3.19l9.91-2.62v0l-9.91-2.65v-3l12.85,3.94v3.64l-12.85,3.92m6.61-12.8c-3.84,0-6.81-2-6.81-5.29,0-2.77,1.62-5.14,6.86-5.14h.6v7.44c2.2,0,3.52-.87,3.52-3.27a5.1,5.1,0,0,0-1-3.37l2.45-.15a9.54,9.54,0,0,1,.83,3.84c0,4.14-3,5.94-6.44,5.94m-1.3-7.44c-2.27,0-3.42.75-3.42,2.15,0,1.62,1.72,2.3,3.42,2.3v-4.44m-5.32-5.39v-2.79c.77,0,1.57-.1,2.35-.1v0a3.59,3.59,0,0,1-2.55-3.27,3.18,3.18,0,0,1,.08-.52h2.9a3.2,3.2,0,0,0-.12.87c0,1.27.77,2.67,3.17,2.67h7v3.09h-10.73a17.5,17.5,0,0,0-2.12.1m12.85-9.08h-18.72v-3.09h18.72v3.09m-6.24-5.84c-3.84,0-6.81-2-6.81-5.29,0-2.77,1.62-5.14,6.86-5.14h.6v7.44c2.2,0,3.52-.87,3.52-3.27a5.11,5.11,0,0,0-1-3.37l2.45-.15a9.53,9.53,0,0,1,.83,3.84c0,4.14-3,5.94-6.44,5.94m-1.3-7.44c-2.27,0-3.42.75-3.42,2.15,0,1.62,1.72,2.3,3.42,2.3v-4.44m7.11-4.89-2.57-.15a8.28,8.28,0,0,0,.85-3.22c0-1.12-.27-2-1.27-2-.5,0-1,.25-1.62,1.37l-.75,1.27c-.77,1.3-1.6,2.72-3.62,2.72-1.77,0-3.65-1.72-3.65-4.44a10.31,10.31,0,0,1,.52-3.22l2.4.17a7.09,7.09,0,0,0-.57,2.72c0,1.25.47,1.77,1.25,1.77s1.07-.55,1.65-1.45l1-1.52c1-1.6,1.75-2.4,3.24-2.4,2.37,0,3.79,2,3.79,4.79a10.42,10.42,0,0,1-.62,3.57m0-10.16-2.57-.15a8.28,8.28,0,0,0,.85-3.22c0-1.12-.27-2-1.27-2-.5,0-1,.25-1.62,1.37l-.75,1.27c-.77,1.3-1.6,2.72-3.62,2.72-1.77,0-3.65-1.72-3.65-4.44a10.31,10.31,0,0,1,.52-3.22l2.4.17a7.09,7.09,0,0,0-.57,2.72c0,1.25.47,1.77,1.25,1.77s1.07-.55,1.65-1.45l1-1.52c1-1.6,1.75-2.4,3.24-2.4,2.37,0,3.79,2,3.79,4.79a10.42,10.42,0,0,1-.62,3.57" transform="translate(-761.88 -1265.4)"/><path class="cls-12" d="M1402.48,1924h-3.13a6.15,6.15,0,0,0,.2-1.64,6.74,6.74,0,0,0-1.32-4.45l3.23-.2a12.65,12.65,0,0,1,1.09,5.07,10.44,10.44,0,0,1-.07,1.21m-7.57,0h-2.57v-3.19c-3,0-4.51,1-4.51,2.83a2.91,2.91,0,0,0,0,.36h-2.78c0-.12,0-.24,0-.36,0-3.65,2.14-6.79,9.06-6.79h.79V1924m7.38-19.26h-23v-4.22h19.63v-7.58h3.36v11.79m-8.24-13.77c-5.07,0-9-2.67-9-7,0-3.65,2.14-6.78,9.06-6.78h.79V1887c2.9,0,4.65-1.15,4.65-4.32a6.74,6.74,0,0,0-1.32-4.45l3.23-.2a12.65,12.65,0,0,1,1.09,5.07c0,5.47-3.92,7.84-8.5,7.84m-1.71-9.82c-3,0-4.51,1-4.51,2.83,0,2.14,2.27,3,4.51,3v-5.86m5.24-6.23c-4.61,0-5.76-3.76-5.76-8.93v-.82h-.63a2.92,2.92,0,0,0-3.23,3.16,7.82,7.82,0,0,0,1.65,4.64l-3.29.23a11.82,11.82,0,0,1-1.25-5.37c0-5.27,2.57-6.49,6.82-6.49h7.41a20.89,20.89,0,0,0,3-.23v3.69a8.45,8.45,0,0,1-2.31.23v.07a5.45,5.45,0,0,1,2.57,4.74,4.87,4.87,0,0,1-5,5.07m-3.59-9.75v.36c0,3.49.72,5.57,3.2,5.57a2.46,2.46,0,0,0,2.6-2.6c0-2.44-1.81-3.33-4.84-3.33h-1m-8.66-7.61v-3.69c1,0,2.08-.13,3.1-.13v-.07a4.73,4.73,0,0,1-3.36-4.32,4.33,4.33,0,0,1,.1-.69H1389a4.22,4.22,0,0,0-.16,1.15c0,1.68,1,3.52,4.18,3.52h9.29v4.08h-14.16a22.88,22.88,0,0,0-2.8.13m0-11.46v-3.82c.86,0,1.75-.13,2.6-.13V1842a5,5,0,0,1-2.87-4.51c0-3.85,2.87-5,6.29-5h10.94v4.09h-10.18c-2.6,0-3.69.66-3.69,2.34,0,2.14,1.81,2.9,4,2.9h9.88v4.08h-14.16a22.9,22.9,0,0,0-2.8.13m-3.2-17.56h-4v-4.22h4v4.22m20.16-.07h-17v-4.08h17v4.08m-17-8v-3.82c.86,0,1.75-.13,2.6-.13v-.07a5,5,0,0,1-2.87-4.51c0-3.85,2.87-5,6.29-5h10.94v4.08h-10.18c-2.6,0-3.69.66-3.69,2.34,0,2.14,1.81,2.9,4,2.9h9.88v4.08h-14.16a23.12,23.12,0,0,0-2.8.13" transform="translate(-761.88 -1265.4)"/></g><path class="cls-10" d="M1408.54,1802.88l-3.62-.23a10.76,10.76,0,0,0,1.45-5c0-3.86-2.67-4.48-5.34-4.48h-1.61v.07a4.64,4.64,0,0,1,2.87,4.48,5.39,5.39,0,0,1-.48,2.22q-3.13-5.43-6.51-10.72h5.2c5.3,0,9.09,1.61,9.09,7.84a17.08,17.08,0,0,1-1.05,5.83" transform="translate(-761.88 -1265.4)"/><path class="cls-12" d="M1393.85,1803.64c-4.68,0-8.79-1.68-8.79-6.13,0-2.47,1.42-3.62,2.9-4.48v-.13c-.89,0-1.75-.1-2.64-.13v-3.69c.89.07,1.78.13,2.67.13h7.31q3.37,5.27,6.51,10.72c-.86,1.9-3.07,3.71-8,3.71m-.26-10.48c-3.56,0-5.47,1.35-5.43,3.3,0,2.14,2,3,5.47,3,4,0,5.66-1.28,5.66-2.67,0-2.57-1.84-3.59-5.7-3.59" transform="translate(-761.88 -1265.4)"/><path class="cls-10" d="M1403.26,1539.87h-21.53v-6.17c0-4.44,2.47-6.76,6.54-6.76s6.57,2.31,6.57,6.76v2.22h8.42v3.95m-15-9c-2.34,0-3.52,1.08-3.52,3.55v1.48h7.07v-1.48c0-2.47-1.2-3.55-3.55-3.55" transform="translate(-761.88 -1265.4)"/><path class="cls-11" d="M1390.66,1524.72l-3.29-2.12v-.75l12-3.21v-.06l-12-3.05v-3.7l18.91,5.8c2.19.68,3.82,2,3.82,4.53a7.81,7.81,0,0,1-.4,2.44l-2.93-.22a4,4,0,0,0,.31-1.45c0-1.14-.68-1.64-2.31-2.13l-1.36-.28-12.75,4.19" transform="translate(-761.88 -1265.4)"/><path class="cls-10" d="M1387.37,1525.8v-3.2l3.29,2.12-3.29,1.08" transform="translate(-761.88 -1265.4)"/><path class="cls-11" d="M1390.18,1511.06h-2.81v-2.53h-3.27l-1.17-3.83h4.44v-3.18h2.81v3.18h8.24c1.7,0,2.19-.62,2.19-1.73a3,3,0,0,0-.34-1.45H1403a5.91,5.91,0,0,1,.52,2.56c0,2.84-1.29,4.44-4.63,4.44h-8.7v2.53m13.08-12h-23.14v-3.82h9.29v-.09a4.3,4.3,0,0,1-2.28-3.95c0-3.61,2.68-4.69,5.89-4.69h10.24v3.83h-9.53c-2.44,0-3.46.62-3.46,2.19,0,2,1.7,2.72,3.73,2.72h9.26v3.82m-8-15.58c-6.48,0-8.18-3.76-8.18-7s1.7-7,8.18-7c6.66,0,8.21,3.73,8.21,7s-1.54,7-8.21,7m0-10c-2.65,0-5.46.55-5.46,3s2.81,3.05,5.46,3.05,5.49-.59,5.49-3.05-2.84-3-5.49-3m-7.93-6.85v-3.58c.8,0,1.64-.12,2.44-.12v-.06a4.63,4.63,0,0,1-2.68-4.23c0-3.61,2.68-4.69,5.89-4.69h10.24v3.82h-9.53c-2.44,0-3.46.62-3.46,2.19,0,2,1.7,2.72,3.73,2.72h9.26v3.83H1390a21.75,21.75,0,0,0-2.62.12" transform="translate(-761.88 -1265.4)"/><path class="cls-10" d="M1439.16,1775.75c-4.51,0-6.86-3.72-6.86-7.94a16.48,16.48,0,0,1,.9-5.27l3.86.22a12,12,0,0,0-1.08,4.73c0,2.31,1.23,3.5,3,3.5s2.6-1.26,3.39-2.67l1.52-2.71c1.66-3,3.25-4.37,6.79-4.37,5.13,0,7.58,3.65,7.58,8.45a11.53,11.53,0,0,1-1.12,5.74l-4.12-.25a10.3,10.3,0,0,0,1.55-5.34c0-2-1.12-3.83-3.65-3.83-1.8,0-2.6,1-3.83,3.28l-1.3,2.35a7.08,7.08,0,0,1-6.61,4.12m9.68-17.8c-5.56,0-9.86-2.93-9.86-7.65,0-4,2.35-7.44,9.93-7.44h.87v10.76c3.18,0,5.09-1.26,5.09-4.73a7.39,7.39,0,0,0-1.45-4.87l3.54-.22a13.85,13.85,0,0,1,1.19,5.56c0,6-4.3,8.59-9.31,8.59m-1.88-10.76c-3.29,0-4.95,1.08-4.95,3.11,0,2.35,2.49,3.32,4.95,3.32v-6.43m-7.69-7.8v-4c1.12,0,2.27-.14,3.39-.14v-.07a5.19,5.19,0,0,1-3.68-4.73,4.78,4.78,0,0,1,.11-.76h4.19a4.65,4.65,0,0,0-.18,1.26c0,1.84,1.12,3.86,4.59,3.86h10.18v4.48h-15.52a25.19,25.19,0,0,0-3.07.14m0-11v-4.62l14.33-3.79v-.07l-14.33-3.83v-4.33l18.59,5.71v5.27l-18.59,5.67m-3.5-19.39h-4.41v-4.62h4.41V1709m22.09-.07h-18.59v-4.48h18.59v4.48m-9.28-8.45c-5.31,0-9.6-2.74-9.6-9a12.22,12.22,0,0,1,.76-3.9l3.54.25a7.17,7.17,0,0,0-.9,3.14c0,3.39,2.27,4.87,6.25,4.87,3.47,0,6.14-1.66,6.14-5.09a7.18,7.18,0,0,0-.9-3.18l3.54-.25a12.74,12.74,0,0,1,.76,4.4c0,6.14-4.3,8.74-9.57,8.74m-12.82-16.25h-4.41v-4.62h4.41v4.62m22.09-.07h-18.59v-4.48h18.59v4.48m-9.31-8.45c-7.58,0-9.57-4.4-9.57-8.2s2-8.16,9.57-8.16c7.8,0,9.6,4.37,9.6,8.16s-1.81,8.2-9.6,8.2m0-11.73c-3.1,0-6.39.65-6.39,3.54s3.29,3.57,6.39,3.57,6.43-.69,6.43-3.57-3.32-3.54-6.43-3.54m8.7-7.44-3.72-.22a12,12,0,0,0,1.23-4.66c0-1.62-.4-2.89-1.84-2.89-.72,0-1.41.36-2.35,2l-1.08,1.84c-1.12,1.88-2.31,3.93-5.23,3.93-2.56,0-5.27-2.49-5.27-6.43a14.91,14.91,0,0,1,.76-4.66l3.47.25a10.26,10.26,0,0,0-.83,3.94c0,1.8.69,2.56,1.8,2.56s1.55-.79,2.38-2.09l1.41-2.2c1.48-2.31,2.53-3.47,4.69-3.47,3.43,0,5.49,2.89,5.49,6.93a15.05,15.05,0,0,1-.9,5.16m-12-24.44c-7.36,0-13-3.94-13-11.44a16,16,0,0,1,1-5.6l4.15.25a9.58,9.58,0,0,0-1.37,4.77c0,3.83,2.6,7.11,9.13,7.11s9.13-3.29,9.13-7.11a7.82,7.82,0,0,0-1.3-4.77l4.22-.25a14,14,0,0,1,.9,5.45c0,7.65-5.6,11.59-13,11.59m12.6-20.87h-27.08v-4.48h27.08v4.48m-9.31-8.45c-7.58,0-9.57-4.4-9.57-8.19s2-8.16,9.57-8.16c7.8,0,9.6,4.37,9.6,8.16s-1.81,8.19-9.6,8.19m0-11.73c-3.1,0-6.39.65-6.39,3.54s3.29,3.57,6.39,3.57,6.43-.69,6.43-3.57-3.32-3.54-6.43-3.54" transform="translate(-761.88 -1265.4)"/><path class="cls-11" d="M1457.16,1580.71c-1-1.13-2.12-2.27-3.18-3.39a2.48,2.48,0,0,0,.48-1.62c0-2.38-2.17-3.07-4.55-3.07h-.48c-1.48-1.5-3-3-4.5-4.48h9.86a25.19,25.19,0,0,0,3.07-.14v4.19c-.94,0-1.91.14-2.85.14l0,.11,0,0c1.37.87,3.14,2,3.14,4.95a5.35,5.35,0,0,1-1,3.34" transform="translate(-761.88 -1265.4)"/><path class="cls-10" d="M1451.26,1582.85h-12v-4.48h11.16c1.83,0,3-.33,3.56-1.05,1.06,1.12,2.13,2.26,3.18,3.39-1.22,1.59-3.43,2.14-5.91,2.14m-1.82-10.22h-10.17v-4.48h5.67c1.51,1.48,3,3,4.5,4.48" transform="translate(-761.88 -1265.4)"/><g class="cls-2"><path class="cls-11" d="M1448.58,1564.62c-6.07,0-9.6-2.42-9.6-6.43a5,5,0,0,1,3-4.8v-.07h-11.16v-4.48h23.9a24,24,0,0,0,3.18-.14v4.19a24.94,24.94,0,0,1-2.89.14v.11a5,5,0,0,1,3.18,4.95c0,4.62-4.41,6.54-9.57,6.54m-.07-11.3c-3.61,0-6.25,1-6.25,3.47s2.42,3.36,6.14,3.36c4.3,0,6.46-.69,6.46-3.29s-2.85-3.54-6.36-3.54" transform="translate(-761.88 -1265.4)"/><path class="cls-10" d="M1457.45,1924h-2.71a5.47,5.47,0,0,0-.8-1.45l2.93-.18a13,13,0,0,1,.58,1.63m-6.53,0h-7.73c1.19-1.45,3.37-2.4,7-2.4h.72v2.4m-8.69-5.21v-3.47a20.51,20.51,0,0,1,2.39-.12v-.09A4.14,4.14,0,0,1,1442,1911c0-3.82,3.65-5.41,7.92-5.41,5,0,7.95,2,7.95,5.32a4.14,4.14,0,0,1-2.45,4v.06h8.66v3.7h-19.21a19.73,19.73,0,0,0-2.63.12m7.83-9.47c-3.56,0-5.35.57-5.35,2.72s2.36,2.93,5.26,2.93,5.17-.84,5.17-2.87-2-2.78-5.08-2.78m7.56-14.76h-20.85v-3.83h17.81v-6.87h3v10.7m-7.47-12.49c-4.6,0-8.16-2.42-8.16-6.33,0-3.32,1.94-6.15,8.22-6.15h.72v8.9c2.63,0,4.21-1,4.21-3.91a6.12,6.12,0,0,0-1.2-4l2.93-.18a11.45,11.45,0,0,1,1,4.6c0,5-3.56,7.11-7.71,7.11m-1.55-8.9c-2.72,0-4.09.9-4.09,2.57,0,1.94,2.06,2.75,4.09,2.75v-5.32m4.75-5.65c-4.18,0-5.23-3.41-5.23-8.1v-.75h-.57a2.65,2.65,0,0,0-2.93,2.87,7.09,7.09,0,0,0,1.49,4.21l-3,.21a10.73,10.73,0,0,1-1.13-4.87c0-4.78,2.33-5.89,6.18-5.89h6.72a18.92,18.92,0,0,0,2.72-.21v3.35a7.65,7.65,0,0,1-2.09.21v.06a5,5,0,0,1,2.33,4.3,4.41,4.41,0,0,1-4.51,4.6m-3.26-8.84v.33c0,3.17.66,5,2.9,5a2.23,2.23,0,0,0,2.36-2.36c0-2.21-1.64-3-4.39-3h-.87m-7.86-6.9v-3.35c.93,0,1.88-.12,2.81-.12v-.06a4.29,4.29,0,0,1-3-3.91,3.94,3.94,0,0,1,.09-.63h3.47a3.82,3.82,0,0,0-.15,1c0,1.52.93,3.2,3.79,3.2h8.43v3.71h-12.85a21.12,21.12,0,0,0-2.54.12m0-10.4v-3.47c.78,0,1.58-.12,2.36-.12v-.06a4.49,4.49,0,0,1-2.6-4.09c0-3.49,2.6-4.54,5.71-4.54h9.92v3.71h-9.23c-2.36,0-3.35.6-3.35,2.12,0,1.94,1.64,2.63,3.61,2.63h9v3.7h-12.85a20.88,20.88,0,0,0-2.54.12m-2.9-15.93h-3.65v-3.82h3.65v3.82m18.29-.06h-15.39v-3.71h15.39v3.71m-15.39-7.29v-3.47c.78,0,1.58-.12,2.36-.12v-.06a4.49,4.49,0,0,1-2.6-4.09c0-3.49,2.6-4.54,5.71-4.54h9.92v3.7h-9.23c-2.36,0-3.35.6-3.35,2.12,0,1.94,1.64,2.63,3.61,2.63h9v3.71h-12.85a20.88,20.88,0,0,0-2.54.12m7.74-15.21c-4.24,0-8-1.52-8-5.56a4.4,4.4,0,0,1,2.63-4.06v-.12c-.81,0-1.58-.09-2.39-.12v-3.35c.81.06,1.61.12,2.42.12H1456c4.81,0,8.25,1.46,8.25,7.11a15.5,15.5,0,0,1-1,5.29L1460,1802a9.77,9.77,0,0,0,1.31-4.54c0-3.5-2.42-4.06-4.84-4.06H1455v.06a4.21,4.21,0,0,1,2.6,4.06c0,2.15-1.43,5.38-7.65,5.38m-.24-9.5c-3.23,0-5,1.23-4.93,3,0,1.94,1.82,2.69,5,2.69,3.61,0,5.14-1.16,5.14-2.42,0-2.33-1.67-3.26-5.17-3.26" transform="translate(-761.88 -1265.4)"/><path class="cls-11" d="M1459.31,1534.37h-28.68v-6.25l22.52-9.53v-.08h-22.52v-4.77h28.68V1520l-22.35,9.49v.08h22.35v4.77M1449,1509c-6.33,0-11.22-3.33-11.22-8.71,0-4.56,2.67-8.47,11.3-8.47h1v12.25c3.62,0,5.79-1.44,5.79-5.38a8.41,8.41,0,0,0-1.64-5.55l4-.25a15.78,15.78,0,0,1,1.35,6.33c0,6.82-4.89,9.78-10.6,9.78m-2.14-12.25c-3.74,0-5.63,1.23-5.63,3.53,0,2.67,2.84,3.78,5.63,3.78v-7.31m-5-7.4h-3.74V1486h-4.36l-1.56-5.1h5.92v-4.23h3.74v4.23h11c2.26,0,2.92-.82,2.92-2.3a4,4,0,0,0-.45-1.93h3.62a7.85,7.85,0,0,1,.7,3.41c0,3.78-1.73,5.92-6.16,5.92h-11.59v3.37m-2.71-13.84v-5l15.68-3.24v-.08l-15.68-3.4v-5.51l15.68-3.32v-.08l-15.68-3.24V1448H1443l16.36,4.35v5.28l-15.68,3.6v.08l15.68,3.52v5.32l-20.14,5.43" transform="translate(-761.88 -1265.4)"/><path class="cls-10" d="M1519.75,1924h-31.12v-3.17h12.82v-.08a5.74,5.74,0,0,1-3.4-5.52c0-4.61,4.07-7.39,11-7.39,5.93,0,11,2.2,11,7.51a5.75,5.75,0,0,1-3.65,5.68v.13a28.6,28.6,0,0,1,3.32.17V1924m-10.87-11c-4.27,0-7.05,1-7.05,3.86s3,4,7.18,4,7.3-1,7.3-4.07-2.49-3.77-7.43-3.77m.17-8.63c-8.71,0-11-5.06-11-9.42s2.28-9.38,11-9.38c9,0,11,5,11,9.38s-2.07,9.42-11,9.42m0-13.48c-3.57,0-7.34.75-7.34,4.07s3.78,4.11,7.34,4.11,7.38-.79,7.38-4.11-3.82-4.07-7.38-4.07m-10.66-9.38v-4.65c1.29,0,2.61-.17,3.9-.17v-.08c-1.66-.62-4.23-2.24-4.23-5.44a5.58,5.58,0,0,1,.12-.87H1503a5.36,5.36,0,0,0-.21,1.45c0,2.12,1.29,4.44,5.27,4.44h11.7v5.15h-17.84a29,29,0,0,0-3.53.17m0-14.44v-4.81c1.08,0,2.2-.17,3.28-.17V1862a6.23,6.23,0,0,1-3.61-5.68c0-4.85,3.61-6.31,7.92-6.31h13.77v5.15h-12.82c-3.28,0-4.65.83-4.65,2.95,0,2.7,2.28,3.65,5,3.65h12.45v5.14h-17.84a29.22,29.22,0,0,0-3.53.17" transform="translate(-761.88 -1265.4)"/></g><path class="cls-13" d="M1513.81,1662.68h0q-1.19-2.39-2.4-4.74h0q1.22,2.36,2.4,4.74m-7.38-14h0c-.58-1-1.16-2.08-1.76-3.12.59,1,1.17,2.08,1.76,3.12" transform="translate(-761.88 -1265.4)"/><path class="cls-11" d="M1518.09,1662.68h-4.29q-1.19-2.39-2.4-4.74h3.06v-1.59c0-4.93-3.1-7.36-8-7.7-.58-1-1.16-2.08-1.76-3.12l-1.09-1.91q.76-.05,1.58-.05c8.71,0,12.94,5.19,12.94,12.38v6.75" transform="translate(-761.88 -1265.4)"/><path class="cls-10" d="M1513.81,1662.68h-21.59v-6.75c0-7.57,3.84-11.82,11.36-12.33l1.09,1.91c.59,1,1.17,2.08,1.76,3.12q-.62,0-1.27,0c-5.67,0-9.31,2.41-9.31,7.75v1.59h15.55q1.22,2.36,2.4,4.74" transform="translate(-761.88 -1265.4)"/><path class="cls-11" d="M1501.89,1640.71c-.78-1.32-1.57-2.63-2.36-3.94l13.89-3.71V1633l-14.42-3.67v-4.45l22.72,7c2.63.82,4.6,2.37,4.6,5.45a9.36,9.36,0,0,1-.48,2.93l-3.52-.26a4.84,4.84,0,0,0,.37-1.74c0-1.37-.82-2-2.78-2.56l-1.63-.33-16.39,5.39" transform="translate(-761.88 -1265.4)"/><path class="cls-10" d="M1499,1641.66v-4.74l.53-.14c.79,1.3,1.58,2.62,2.36,3.94l-2.89,1" transform="translate(-761.88 -1265.4)"/><path class="cls-11" d="M1499,1622.75v-4.3c1,0,2-.15,2.93-.15v-.08a5.57,5.57,0,0,1-3.22-5.08c0-4.34,3.22-5.63,7.08-5.63h12.31v4.6h-11.45c-2.93,0-4.15.74-4.15,2.63,0,2.41,2,3.26,4.48,3.26h11.12v4.6h-15.94a26.09,26.09,0,0,0-3.15.15m13.79-18.39c-5.19,0-6.49-4.23-6.49-10v-.93h-.7c-1.89,0-3.63.93-3.63,3.56a8.81,8.81,0,0,0,1.85,5.23l-3.71.26a13.31,13.31,0,0,1-1.41-6c0-5.93,2.89-7.3,7.67-7.3h8.34a23.58,23.58,0,0,0,3.37-.26V1593a9.45,9.45,0,0,1-2.59.26v.07a6.14,6.14,0,0,1,2.89,5.34,5.48,5.48,0,0,1-5.6,5.71m-4-11v.41c0,3.93.82,6.27,3.59,6.27a2.76,2.76,0,0,0,2.93-2.93c0-2.74-2-3.74-5.45-3.74h-1.07m-9.75-8.3v-4.6c1,0,2-.15,3-.15v-.07a5.31,5.31,0,0,1-3.3-4.82,4.94,4.94,0,0,1,3-4.82,5.92,5.92,0,0,1-3-5.12c0-4.15,3-5.49,7.6-5.49h11.79v4.6h-12c-2.37,0-3.56.74-3.56,2.45,0,2,1.93,3.11,4,3.11h11.57v4.6h-12c-2.37,0-3.56.74-3.56,2.45,0,2,1.93,3.11,4,3.11h11.57v4.6h-16a29.87,29.87,0,0,0-3.11.15m9.53-28.58c-7.78,0-9.82-4.52-9.82-8.41s2-8.38,9.82-8.38c8,0,9.86,4.49,9.86,8.38s-1.85,8.41-9.86,8.41m0-12c-3.19,0-6.56.67-6.56,3.63s3.37,3.67,6.56,3.67,6.6-.7,6.6-3.67-3.41-3.63-6.6-3.63m9.56-8.82h-25.87v-6.75c0-8.08,4.37-12.38,12.94-12.38s12.94,5.19,12.94,12.38v6.75m-12.94-14.09c-5.67,0-9.31,2.41-9.31,7.75v1.59h18.61v-1.59c0-5.34-3.63-7.75-9.3-7.75m12.94-9.49h-25.87v-7.56c0-5.34,2-7.78,6.38-7.78a5.77,5.77,0,0,1,6,4.3h.07a5.84,5.84,0,0,1,6.19-4.89c4.71,0,7.27,3.45,7.27,8v7.9m-7.6-11.19c-2.26,0-4,1.19-4,4.11v2.48h7.93v-2.63a3.64,3.64,0,0,0-4-4m-11.31.44c-2.19,0-3.48,1.56-3.48,3.82v2.34H1503V1505a3.62,3.62,0,0,0-3.86-3.71" transform="translate(-761.88 -1265.4)"/><path class="cls-10" d="M1520.54,1831.81h-5.48a7.13,7.13,0,0,0,.65-2.94c0-3.09-2.29-3.93-5-3.93h-24.55v-6.37h24.6c7.57,0,10.65,4,10.65,8.66a13.16,13.16,0,0,1-.85,4.58m-8.76-18.82h-16.53v-6.17h15.39c3.93,0,5.58-1.09,5.58-3.68,0-3.29-3-4.23-6.27-4.23h-14.69v-6.17h21.41a35,35,0,0,0,4.23-.2v5.77c-1.3,0-2.64.2-3.93.2l0,.15,0-.05c1.89,1.2,4.33,2.79,4.33,6.82,0,5.82-4.33,7.57-9.51,7.57m-16.53-25.74v-5.77a34.21,34.21,0,0,1,4-.2v-.15a6.91,6.91,0,0,1-4.38-6.82c0-6.37,6.07-9,13.19-9,8.36,0,13.24,3.34,13.24,8.86a6.89,6.89,0,0,1-4.08,6.62v.1h14.44v6.17h-32a33.09,33.09,0,0,0-4.38.2m13-15.78c-5.93,0-8.91.95-8.91,4.53s3.93,4.88,8.76,4.88,8.61-1.39,8.61-4.78-3.34-4.63-8.46-4.63m-13-8.51v-6.37l19.37-5.18v-.1l-19.37-4.93v-6l30.52,9.36c3.53,1.1,6.17,3.19,6.17,7.32a12.62,12.62,0,0,1-.65,3.93l-4.73-.35a6.49,6.49,0,0,0,.5-2.34c0-1.84-1.1-2.64-3.74-3.43l-2.19-.45-25.89,8.51m4.53-23.8h-4.53v-4.08H1490l-1.89-6.17h7.17v-5.13h4.53v5.13h13.29c2.74,0,3.54-1,3.54-2.79a4.86,4.86,0,0,0-.55-2.34h4.38a9.52,9.52,0,0,1,.85,4.13c0,4.58-2.09,7.17-7.47,7.17h-14v4.08m8.66-18.62c-7.67,0-13.59-4-13.59-10.55,0-5.53,3.24-10.26,13.69-10.26h1.2v14.84c4.38,0,7-1.74,7-6.52a10.2,10.2,0,0,0-2-6.72l4.88-.3a19.09,19.09,0,0,1,1.64,7.67c0,8.27-5.93,11.85-12.85,11.85m-2.59-14.84c-4.53,0-6.82,1.49-6.82,4.28,0,3.24,3.44,4.58,6.82,4.58v-8.86m-10.61-10.75v-5.58c1.54-.05,3.14-.2,4.68-.2v-.1c-2-.75-5.08-2.69-5.08-6.52a6.72,6.72,0,0,1,.15-1h5.78a6.42,6.42,0,0,0-.25,1.74c0,2.54,1.54,5.33,6.32,5.33h14v6.17h-21.41a34.83,34.83,0,0,0-4.23.2" transform="translate(-761.88 -1265.4)"/><g class="cls-2"><path class="cls-10" d="M1402.87,1663.73h-18.13v-5.2c0-3.74,2.08-5.69,5.51-5.69s5.53,1.95,5.53,5.69v1.87h7.09v3.33m-12.63-7.56c-2,0-3,.91-3,3v1.25h5.95v-1.25c0-2.08-1-3-3-3m-.75-5.61v-2.91c.81,0,1.64-.1,2.44-.1v-.05a3.73,3.73,0,0,1-2.65-3.4,3.46,3.46,0,0,1,.08-.54h3a3.34,3.34,0,0,0-.13.91c0,1.33.8,2.78,3.3,2.78h7.33v3.22H1391.7a18.23,18.23,0,0,0-2.21.1m6.88-8.52c-4,0-7.09-2.1-7.09-5.51,0-2.88,1.69-5.35,7.14-5.35h.62v7.74c2.29,0,3.66-.91,3.66-3.4a5.32,5.32,0,0,0-1-3.51l2.55-.16a10,10,0,0,1,.86,4c0,4.31-3.09,6.18-6.7,6.18m-1.35-7.74c-2.36,0-3.56.78-3.56,2.23,0,1.69,1.79,2.39,3.56,2.39v-4.62m1.17-5.25c-4.36,0-6.91-1.74-6.91-4.62a3.6,3.6,0,0,1,2.13-3.45v-.05h-8v-3.22h17.2a17.22,17.22,0,0,0,2.29-.1v3a17.91,17.91,0,0,1-2.08.1v.08a3.6,3.6,0,0,1,2.29,3.56c0,3.33-3.17,4.7-6.88,4.7m-.05-8.13c-2.6,0-4.49.73-4.49,2.49s1.74,2.42,4.42,2.42c3.09,0,4.65-.49,4.65-2.36s-2.05-2.55-4.57-2.55m-9.17-6.44h-3.17v-3.33H1387v3.33m15.9-.05h-13.38v-3.22h13.38v3.22m-6.68-6.08c-3.82,0-6.91-2-6.91-6.47a8.78,8.78,0,0,1,.55-2.8l2.55.18a5.14,5.14,0,0,0-.65,2.26c0,2.44,1.64,3.51,4.49,3.51,2.49,0,4.42-1.2,4.42-3.66a5.16,5.16,0,0,0-.65-2.29l2.55-.18a9.16,9.16,0,0,1,.54,3.17c0,4.42-3.09,6.29-6.88,6.29m0-11.07c-3.82,0-6.91-2-6.91-6.47a8.78,8.78,0,0,1,.55-2.8l2.55.18a5.14,5.14,0,0,0-.65,2.26c0,2.44,1.64,3.51,4.49,3.51,2.49,0,4.42-1.2,4.42-3.66a5.16,5.16,0,0,0-.65-2.29l2.55-.18a9.16,9.16,0,0,1,.54,3.17c0,4.42-3.09,6.29-6.88,6.29m-9.22-11.69h-3.17v-3.33H1387v3.33m15.9-.05h-13.38v-3.22h13.38v3.22m-6.7-6.08c-5.45,0-6.88-3.17-6.88-5.9s1.43-5.87,6.88-5.87c5.61,0,6.91,3.14,6.91,5.87s-1.3,5.9-6.91,5.9m0-8.44c-2.23,0-4.6.47-4.6,2.55s2.36,2.57,4.6,2.57,4.62-.49,4.62-2.57-2.39-2.55-4.62-2.55m-8.16,4.08-3.74-1.66v-3l3.74,2.65v2m1.48-9.85v-3c.68,0,1.38-.1,2.05-.1v-.05a3.9,3.9,0,0,1-2.26-3.56c0-3,2.26-3.95,5-3.95h8.63v3.22h-8c-2.05,0-2.91.52-2.91,1.84,0,1.69,1.43,2.29,3.14,2.29h7.79v3.22H1391.7a18.23,18.23,0,0,0-2.21.1" transform="translate(-761.88 -1265.4)"/><path class="cls-11" d="M1576.42,1485.45h-24.87v-7.77c0-4.42,2-7.41,6.55-7.41a5.58,5.58,0,0,1,5.84,4.81h.11c.14-.93.57-2,2.89-2.74l9.48-3.24v4.85l-8.09,2.46a3.23,3.23,0,0,0-2.6,3.46v1h10.69v4.56M1558.61,1475c-2.85,0-3.56,1.5-3.56,4.06v1.85h7.34V1479c0-2.42-1.25-4.06-3.78-4.06m8.91-8.41c-5.49,0-9.73-2.89-9.73-7.55,0-4,2.32-7.34,9.8-7.34h.86v10.62c3.13,0,5-1.25,5-4.67a7.29,7.29,0,0,0-1.42-4.81l3.49-.21a13.64,13.64,0,0,1,1.18,5.49c0,5.91-4.24,8.48-9.19,8.48m-1.85-10.62c-3.24,0-4.88,1.07-4.88,3.06,0,2.32,2.46,3.28,4.88,3.28V1456m1.6-7.2a15.23,15.23,0,0,1-5.2-.8h10.31a15.09,15.09,0,0,1-5.11.8" transform="translate(-761.88 -1265.4)"/><path class="cls-11" d="M1516.74,1481.48h-22.19v-6.93c0-3.94,1.78-6.61,5.85-6.61a5,5,0,0,1,5.21,4.29h.09c.13-.83.51-1.75,2.58-2.45l8.46-2.89v4.32l-7.22,2.19a2.88,2.88,0,0,0-2.32,3.08v.92h9.54v4.07m-15.9-9.35c-2.54,0-3.18,1.34-3.18,3.63v1.65h6.55v-1.65c0-2.16-1.11-3.63-3.37-3.63m7.95-7.5c-4.9,0-8.68-2.57-8.68-6.74,0-3.53,2.07-6.55,8.74-6.55h.76v9.48c2.8,0,4.48-1.11,4.48-4.17a6.51,6.51,0,0,0-1.27-4.29l3.12-.19a12.19,12.19,0,0,1,1,4.9c0,5.28-3.78,7.57-8.2,7.57m-1.65-9.47c-2.89,0-4.36,1-4.36,2.73,0,2.07,2.19,2.93,4.36,2.93v-5.66m1.43-6.42a10.56,10.56,0,0,1-4.13-.77h8.32a10.78,10.78,0,0,1-4.19.77" transform="translate(-761.88 -1265.4)"/></g><path class="cls-11" d="M1576.17,1840.67h-24v-6.26c0-7.5,4.06-11.49,12-11.49s12,4.82,12,11.49v6.26m-12-13.07c-5.26,0-8.64,2.24-8.64,7.19v1.48h17.27v-1.48c0-5-3.37-7.19-8.64-7.19m3.41-7.71c-5.3,0-9.39-2.79-9.39-7.29,0-3.82,2.24-7.09,9.46-7.09h.83v10.25c3,0,4.85-1.2,4.85-4.51a7,7,0,0,0-1.38-4.64l3.37-.21a13.21,13.21,0,0,1,1.14,5.3c0,5.71-4.09,8.19-8.88,8.19m-1.79-10.25c-3.13,0-4.71,1-4.71,3,0,2.24,2.37,3.17,4.71,3.17v-6.12m-4.2-6.19h-3.13v-2.82h-3.65l-1.31-4.27h5v-3.54h3.13v3.54h9.19c1.89,0,2.44-.69,2.44-1.93a3.36,3.36,0,0,0-.38-1.62h3a6.57,6.57,0,0,1,.59,2.86c0,3.17-1.45,5-5.16,5h-9.7v2.82m6-12.87c-5.3,0-9.39-2.79-9.39-7.29,0-3.82,2.24-7.09,9.46-7.09h.83v10.25c3,0,4.85-1.2,4.85-4.51a7,7,0,0,0-1.38-4.64l3.37-.21a13.21,13.21,0,0,1,1.14,5.3c0,5.71-4.09,8.19-8.88,8.19m-1.79-10.25c-3.13,0-4.71,1-4.71,3,0,2.24,2.37,3.16,4.71,3.16v-6.12m1.55-6.95c-5.06,0-9.15-2.62-9.15-8.57a11.64,11.64,0,0,1,.72-3.72l3.37.24a6.83,6.83,0,0,0-.86,3c0,3.23,2.17,4.64,6,4.64,3.3,0,5.85-1.58,5.85-4.85a6.83,6.83,0,0,0-.86-3l3.37-.24a12.15,12.15,0,0,1,.72,4.2c0,5.85-4.09,8.33-9.12,8.33m0-14.66c-5.06,0-9.15-2.61-9.15-8.57a11.63,11.63,0,0,1,.72-3.71l3.37.24a6.82,6.82,0,0,0-.86,3c0,3.23,2.17,4.64,6,4.64,3.3,0,5.85-1.58,5.85-4.85a6.83,6.83,0,0,0-.86-3l3.37-.24a12.15,12.15,0,0,1,.72,4.2c0,5.85-4.09,8.32-9.12,8.32m-12.21-15.48h-4.2v-4.4h4.2v4.4m21.06-.07h-17.72v-4.27h17.72v4.27m-8.88-8.05c-7.22,0-9.12-4.2-9.12-7.81s1.89-7.78,9.12-7.78c7.43,0,9.15,4.16,9.15,7.78s-1.72,7.81-9.15,7.81m0-11.18c-3,0-6.09.62-6.09,3.37s3.13,3.41,6.09,3.41,6.12-.65,6.12-3.41-3.16-3.37-6.12-3.37m-10.8,5.4-5-2.2v-4l5,3.51v2.68m2-13v-4c.89,0,1.82-.14,2.72-.14v-.07a5.17,5.17,0,0,1-3-4.71c0-4,3-5.23,6.57-5.23h11.42v4.27h-10.63c-2.72,0-3.85.69-3.85,2.44,0,2.24,1.89,3,4.16,3h10.32v4.27h-14.79a24,24,0,0,0-2.92.14m8.88-26.46c-5.78,0-9.15-2.31-9.15-6.12a4.76,4.76,0,0,1,2.82-4.57v-.07h-10.63v-4.27h22.77a22.88,22.88,0,0,0,3-.14v4a23.66,23.66,0,0,1-2.75.14v.1a4.77,4.77,0,0,1,3,4.71c0,4.4-4.2,6.23-9.12,6.23m-.07-10.77c-3.44,0-6,1-6,3.3s2.3,3.2,5.85,3.2c4.09,0,6.16-.65,6.16-3.13s-2.72-3.37-6.05-3.37m.31-7.71c-5.3,0-9.39-2.79-9.39-7.29,0-3.82,2.24-7.09,9.46-7.09h.83v10.25c3,0,4.85-1.2,4.85-4.51a7,7,0,0,0-1.38-4.64l3.37-.21a13.21,13.21,0,0,1,1.14,5.3c0,5.71-4.09,8.19-8.88,8.19m-1.79-10.25c-3.13,0-4.71,1-4.71,3,0,2.24,2.37,3.16,4.71,3.16v-6.12m5.47-15.45c-4.82,0-6-3.92-6-9.32v-.86h-.65a3,3,0,0,0-3.37,3.3,8.17,8.17,0,0,0,1.72,4.85l-3.44.24a12.34,12.34,0,0,1-1.31-5.61c0-5.5,2.68-6.78,7.12-6.78H1573a21.88,21.88,0,0,0,3.13-.24v3.85a8.81,8.81,0,0,1-2.41.24v.07a5.7,5.7,0,0,1,2.68,5,5.08,5.08,0,0,1-5.2,5.3m-3.75-10.18v.38c0,3.65.76,5.81,3.34,5.81a2.56,2.56,0,0,0,2.72-2.72c0-2.55-1.89-3.47-5.06-3.47h-1m-9-7.81v-4c.89,0,1.82-.14,2.72-.14v-.07a5.17,5.17,0,0,1-3-4.71c0-4,3-5.23,6.57-5.23h11.42v4.27h-10.63c-2.72,0-3.85.69-3.85,2.44,0,2.24,1.89,3,4.16,3h10.32v4.27h-14.79a24.18,24.18,0,0,0-2.92.14m8.84-17.51c-7.22,0-9.12-4.2-9.12-7.81s1.89-7.77,9.12-7.77c7.43,0,9.15,4.16,9.15,7.77s-1.72,7.81-9.15,7.81m0-11.18c-3,0-6.09.62-6.09,3.37s3.13,3.4,6.09,3.4,6.12-.65,6.12-3.4-3.16-3.37-6.12-3.37m-8.84-7.53v-4.27c.93,0,1.86-.14,2.79-.14V1587a4.93,4.93,0,0,1-3.06-4.47A4.58,4.58,0,0,1,1561,1578a5.49,5.49,0,0,1-2.82-4.75c0-3.85,2.75-5.09,7.05-5.09h10.94v4.27H1565c-2.2,0-3.3.69-3.3,2.27,0,1.89,1.79,2.89,3.75,2.89h10.73v4.27H1565c-2.2,0-3.3.69-3.3,2.27,0,1.89,1.79,2.89,3.75,2.89h10.73v4.27h-14.83a28,28,0,0,0-2.89.14m12.8-26.08c-4.82,0-6-3.92-6-9.32v-.86h-.65a3,3,0,0,0-3.37,3.3,8.17,8.17,0,0,0,1.72,4.85l-3.44.24a12.34,12.34,0,0,1-1.31-5.61c0-5.5,2.68-6.78,7.12-6.78H1573a21.88,21.88,0,0,0,3.13-.24v3.85a8.77,8.77,0,0,1-2.41.24v.07a5.7,5.7,0,0,1,2.68,5,5.08,5.08,0,0,1-5.2,5.3m-3.75-10.18v.38c0,3.65.76,5.81,3.34,5.81a2.56,2.56,0,0,0,2.72-2.72c0-2.54-1.89-3.47-5.06-3.47h-1m8.67-8.36h-25.8v-4.27h25.8v4.27m0-8.94h-17.72v-4.27h17.72v4.27m-19.68-.1-5-2.2v-4l5,3.51v2.68m14.76-7.5c-4.82,0-6-3.92-6-9.32v-.86h-.65a3,3,0,0,0-3.37,3.3,8.17,8.17,0,0,0,1.72,4.85l-3.44.24a12.34,12.34,0,0,1-1.31-5.61c0-5.5,2.68-6.78,7.12-6.78H1573a21.93,21.93,0,0,0,3.13-.24v3.85a8.81,8.81,0,0,1-2.41.24v.07a5.7,5.7,0,0,1,2.68,5,5.08,5.08,0,0,1-5.2,5.3m-3.75-10.18v.38c0,3.65.76,5.81,3.34,5.81a2.56,2.56,0,0,0,2.72-2.72c0-2.55-1.89-3.48-5.06-3.48h-1m8.08-7.26-3.54-.21a11.4,11.4,0,0,0,1.17-4.44c0-1.55-.38-2.75-1.75-2.75-.69,0-1.34.34-2.24,1.89l-1,1.75c-1.07,1.79-2.2,3.75-5,3.75-2.44,0-5-2.37-5-6.12a14.18,14.18,0,0,1,.72-4.44l3.3.24a9.78,9.78,0,0,0-.79,3.75c0,1.72.65,2.44,1.72,2.44s1.48-.76,2.27-2l1.34-2.1c1.41-2.2,2.41-3.3,4.47-3.3,3.27,0,5.23,2.75,5.23,6.61a14.35,14.35,0,0,1-.86,4.92" transform="translate(-761.88 -1265.4)"/><text class="cls-14" transform="translate(78.09 590.19)">Modalidad semipresencial:</text><text class="cls-14" transform="translate(278.64 590.19)"> </text><text class="cls-14" transform="translate(78.09 616.69)">clases y tutoriales en streaming</text><text class="cls-14" transform="translate(78.09 643.19)">+ 4 proyectos + 1 </text><text class="cls-14" transform="translate(216.31 643.19)">T</text><text class="cls-14" transform="translate(223.67 643.19)">rabajo ﬁnal</text><text class="cls-15" transform="translate(77.98 324.37)">Ciencia de datos</text><text class="cls-16" transform="translate(556.86 324.37)"> </text><text class="cls-15" transform="translate(77.98 413.32)">y aplicaciones</text><text class="cls-17" transform="translate(78.09 542.16)">T</text><text class="cls-17" transform="translate(90.28 542.16)">ítulo propio de la UCLM - 30 ECTS</text><text class="cls-18" transform="translate(76.67 483.6)">escalables en la nub</text><text class="cls-18" transform="translate(434.14 483.6)">e</text><rect class="cls-5" x="608.62" y="279.04" width="48.76" height="208.78"/><rect class="cls-5" x="662.59" y="336.49" width="48.58" height="243.08"/><rect class="cls-5" x="672.81" y="579.57" width="31.89" height="47.87"/><rect class="cls-5" x="714.37" y="465.77" width="59.18" height="103.56"/><rect class="cls-5" x="696.34" y="413.32" width="55.58" height="70.28"/><rect class="cls-5" x="743.96" y="427.3" width="21.71" height="41.26"/><rect class="cls-5" x="748.96" y="421.18" width="12.17" height="12.17"/><rect class="cls-5" x="620.22" y="483.6" width="31.64" height="20.6"/><ellipse class="cls-5" cx="743.96" cy="611.38" rx="29.59" ry="31.81"/><ellipse class="cls-5" cx="745.26" cy="635.62" rx="50.61" ry="22.19"/><ellipse class="cls-5" cx="808.32" cy="633.35" rx="34.87" ry="24.46"/><ellipse class="cls-5" cx="692.28" cy="631.59" rx="18.42" ry="25.51"/><ellipse class="cls-5" cx="706.56" cy="650.73" rx="10.21" ry="3.9"/><ellipse class="cls-5" cx="732.68" cy="398.33" rx="14.48" ry="26.13"/><ellipse class="cls-5" cx="746.3" cy="401.08" rx="6.28" ry="8.55"/><ellipse class="cls-5" cx="740.82" cy="394.88" rx="8.14" ry="6.19"/><ellipse class="cls-5" cx="747.95" cy="394.19" rx="2.55" ry="2.26"/><ellipse class="cls-5" cx="624.54" cy="272.7" rx="18.28" ry="11.15"/><circle class="cls-5" cx="681.21" cy="327.38" r="18.61"/><ellipse class="cls-5" cx="667.55" cy="311.06" rx="19.33" ry="13.32"/><ellipse class="cls-5" cx="679.48" cy="309.35" rx="6.21" ry="8.2"/><ellipse class="cls-5" cx="685.31" cy="310" rx="3.18" ry="3.89"/><circle class="cls-5" cx="684.48" cy="307.1" r="1.86"/><rect class="cls-5" x="1446.66" y="1568.28" width="0.69" height="4.92" transform="translate(-1448.74 217.84) rotate(-45)"/><ellipse class="cls-5" cx="806.04" cy="614.92" rx="28.38" ry="15.43"/><ellipse class="cls-5" cx="1395.85" cy="1775.34" rx="6.86" ry="13.05" transform="translate(-1598 854.24) rotate(-60.59)"/><rect class="cls-5" x="1386.71" y="1777.68" width="7.18" height="2.84" transform="translate(1271.1 -1650.8) rotate(54.54)"/><rect class="cls-5" x="676.1" y="619.39" width="158.95" height="38.42"/><ellipse class="cls-5" cx="1408.99" cy="1793.01" rx="9.43" ry="16.45" transform="translate(-1527.96 -157.38) rotate(-34.36)"/><rect class="cls-5" x="1389.78" y="1790.34" width="18.02" height="3.13" transform="translate(1413.04 -1610.12) rotate(57.94)"/><rect class="cls-5" x="637.93" y="528.09" width="0.63" height="0.26"/><ellipse class="cls-6" cx="590.12" cy="576.13" rx="60" ry="74.23"/><rect class="cls-6" x="1382.03" y="1772.25" width="6.03" height="14.4" transform="translate(-1537.26 -131.97) rotate(-35.46)"/><rect class="cls-6" x="623.18" y="510.64" width="0.1" height="0.1"/><rect class="cls-6" x="1393.9" y="1788.11" width="4.73" height="15.02" transform="translate(-1502.07 -250.4) rotate(-32.06)"/><rect class="cls-6" x="1395.89" y="1787.99" width="2.96" height="14.5" rx="1.48" ry="1.48" transform="translate(-1501.7 -249.87) rotate(-32.06)"/><rect class="cls-6" x="611.65" y="610.13" width="42.71" height="47.67" rx="12" ry="12"/><rect class="cls-4" x="788.49" y="182.99" width="70.41" height="416.5" rx="12" ry="12"/><rect class="cls-4" x="727.37" y="182.99" width="48.95" height="180.27" rx="12" ry="12"/><rect class="cls-4" x="748.96" y="355.23" width="44.58" height="44.58" rx="12" ry="12"/><ellipse class="cls-4" cx="1512.81" cy="1635.39" rx="12.14" ry="19.83" transform="translate(-1431.67 -76.53) rotate(-35.67)"/><rect class="cls-4" x="756.55" y="394.88" width="0.39" height="0.09"/><rect class="cls-4" x="1511.99" y="1651.92" width="9.62" height="12.47" rx="4.81" ry="4.81" transform="translate(-1334.85 -433.71) rotate(-25.97)"/><rect class="cls-4" x="756.74" y="395.88" height="0.57"/><rect class="cls-4" x="1503.94" y="1633.66" width="7.39" height="18.64" rx="3.69" ry="3.69" transform="translate(-1343.11 -402.81) rotate(-26.97)"/><rect class="cls-5" x="1496.86" y="1635.34" width="3.99" height="8.25" rx="2" ry="2" transform="translate(-1365.9 -341.71) rotate(-28.77)"/><rect class="cls-4" x="608.62" y="182.99" width="107.63" height="68.63" rx="12" ry="12"/><rect class="cls-4" x="665.93" y="245.66" width="41.71" height="48.38" rx="12" ry="12"/><rect class="cls-4" x="692.31" y="291.45" width="18.87" height="26.11" rx="9.44" ry="9.44"/><rect class="cls-4" x="676.42" y="289.31" width="23.34" height="10.17" rx="5.09" ry="5.09"/><rect class="cls-4" x="685.69" y="300.3" width="10.58" height="7.27" rx="3.63" ry="3.63"/><rect class="cls-4" x="1453.38" y="1571.52" width="1.91" height="3.89" rx="0.95" ry="0.95" transform="translate(2692.5 -460.48) rotate(111.73)"/><rect class="cls-4" x="1444.37" y="1567.84" width="7.12" height="2.87" rx="1.44" ry="1.44" transform="translate(771.86 -1829.62) rotate(45)"/><rect class="cls-4" x="1452.96" y="1576.54" width="7.12" height="2.87" rx="1.44" ry="1.44" transform="translate(780.53 -1833.14) rotate(45)"/><rect class="cls-4" x="1479.23" y="1579.83" width="7.12" height="2.87" rx="1.44" ry="1.44" transform="translate(790.54 -1850.75) rotate(45)"/><rect class="cls-4" x="1479.37" y="1579.84" width="7.12" height="2.87" rx="1.44" ry="1.44" transform="translate(790.59 -1850.85) rotate(45)"/><rect class="cls-5" x="1452.57" y="1577.92" width="3.69" height="0.29" rx="0.14" ry="0.14" transform="translate(779.97 -1831.63) rotate(45)"/><rect class="cls-4" x="630.61" y="248.98" width="24.17" height="14.17" rx="6.45" ry="6.45"/><rect class="cls-4" x="627.14" y="250.04" width="8.54" height="2.54" rx="1.27" ry="1.27"/><rect class="cls-4" x="1386.89" y="1518.3" width="8.12" height="6.03" rx="2.01" ry="2.01" transform="translate(267.26 -1773.43) rotate(32.33)"/><rect class="cls-5" x="1383.64" y="1523.32" width="8.29" height="4.47" rx="2.24" ry="2.24" transform="translate(269.04 -1771.08) rotate(32.33)"/></svg>