<svg width="241" height="172" xmlns="http://www.w3.org/2000/svg" xmlns:xlink="http://www.w3.org/1999/xlink" xml:space="preserve" overflow="hidden"><defs><clipPath id="clip0"><rect x="676" y="1104" width="241" height="172"/></clipPath><clipPath id="clip1"><rect x="676" y="1105" width="241" height="171"/></clipPath><clipPath id="clip2"><rect x="676" y="1105" width="241" height="171"/></clipPath><clipPath id="clip3"><rect x="676" y="1105" width="241" height="171"/></clipPath></defs><g clip-path="url(#clip0)" transform="translate(-676 -1104)"><g clip-path="url(#clip1)"><g clip-path="url(#clip2)"><g clip-path="url(#clip3)"><path d="M64.1103 77.7849C64.1103 84.2503 59.6475 87.483 53.8973 87.483 49.5203 87.483 47.203 85.4804 47.203 82.1047 47.203 78.7862 49.1198 77.0411 54.355 76.4117L59.5903 75.811C61.6786 75.5821 63.1949 75.0385 64.1389 74.1803L64.1389 77.7849ZM73.4937 64.7969C73.4937 56.8725 67.9438 52.896 56.9583 52.896 45.6582 52.896 39.6792 57.4447 39.1356 66.4276L48.662 66.4276C49.0626 61.7359 51.2654 60.1338 56.9011 60.1338 62.1936 60.1338 64.1389 61.7645 64.1389 65.0544 64.1389 67.8866 62.4511 69.0595 58.5318 69.5744L52.5241 70.118C42.3683 71.1193 37.3047 75.1816 37.3047 82.5052 37.3047 90.1149 42.9977 94.4061 51.6087 94.4061 57.3588 94.4061 61.6786 92.4893 64.3678 88.6559 64.5966 90.9731 64.9113 92.5752 65.4549 93.4906L75.1244 93.4906C74.0373 91.9458 73.4937 89.4283 73.4937 85.9668L73.4937 64.7969Z" fill="#191D32" fill-rule="nonzero" fill-opacity="1" transform="matrix(1 0 0 1.00409 676.075 1105)"/><path d="M92.4893 41.8248 82.8771 41.8248 82.8771 53.7829 76.7264 53.7829 76.7264 61.1637 82.8771 61.1637 82.8771 83.5923C82.8771 90.7443 86.7106 93.7481 95.2643 93.7481 96.2656 93.7481 97.9535 93.6623 100.328 93.4334L100.328 86.024 97.038 86.024C93.7195 86.024 92.518 85.1085 92.518 82.5624L92.518 61.1065 100.328 61.1065 100.328 53.7829 92.518 53.7829 92.518 41.8248Z" fill="#191D32" fill-rule="nonzero" fill-opacity="1" transform="matrix(1 0 0 1.00409 676.075 1105)"/><path d="M141.809 86.3673C134.343 86.3673 131.654 80.6171 131.654 73.9228 131.654 65.6265 135.573 60.849 141.809 60.849 148.189 60.849 152.022 65.3119 152.022 73.6081 152.051 80.3024 149.419 86.3959 141.809 86.3673L141.809 86.3673ZM151.822 58.9323C148.99 54.87 144.899 52.8674 139.607 52.8674 127.477 52.8674 121.784 62.3938 121.784 73.6081 121.784 84.7652 127.534 94.3489 139.607 94.3489 145.071 94.3489 149.219 92.2033 152.137 87.8835L152.137 93.4334 161.52 93.4334 161.52 41.8248 151.851 41.8248 151.851 58.9323Z" fill="#191D32" fill-rule="nonzero" fill-opacity="1" transform="matrix(1 0 0 1.00409 676.075 1105)"/><path d="M194.019 77.7849C194.019 84.2503 189.556 87.483 183.806 87.483 179.429 87.483 177.112 85.4804 177.112 82.1047 177.112 78.8148 179.028 77.0411 184.264 76.4117L189.499 75.811C191.587 75.5821 193.103 75.0385 194.047 74.1803L194.047 77.7849ZM203.374 85.9381 203.374 64.7969C203.374 56.8725 197.852 52.896 186.838 52.896 175.538 52.896 169.559 57.4447 169.016 66.4276L178.542 66.4276C178.942 61.7359 181.145 60.1338 186.752 60.1338 192.045 60.1338 193.99 61.7645 193.99 65.0544 193.99 67.8866 192.302 69.0595 188.383 69.5744L182.404 70.118C172.248 71.1193 167.185 75.1816 167.185 82.5052 167.185 90.1149 172.878 94.4061 181.489 94.4061 187.239 94.4061 191.559 92.4893 194.248 88.6559 194.477 90.9731 194.791 92.5752 195.335 93.4906L205.033 93.4906C203.917 91.9172 203.374 89.3711 203.374 85.9381" fill="#191D32" fill-rule="nonzero" fill-opacity="1" transform="matrix(1 0 0 1.00409 676.075 1105)"/><path d="M115.147 50.8935 115.605 50.8935 115.605 41.8248 106.078 41.8248C106.078 46.8311 110.14 50.8935 115.147 50.8935" fill="#191D32" fill-rule="nonzero" fill-opacity="1" transform="matrix(1 0 0 1.00409 676.075 1105)"/><path d="M105.992 63.5095 105.992 72.8357 105.992 93.4906 115.69 93.4906 115.69 72.8357 115.69 53.8401 105.992 53.8401Z" fill="#191D32" fill-rule="nonzero" fill-opacity="1" transform="matrix(1 0 0 1.00409 676.075 1105)"/><path d="M79.2725 130.423 79.2439 119.009C79.2439 116.634 78.9292 114.26 75.9254 114.26 73.0646 114.26 72.378 116.291 72.378 118.723L72.4066 130.452 65.9698 130.481 65.9412 118.809C65.9412 116.606 65.4263 114.317 62.7085 114.317 59.7333 114.317 59.0753 116.577 59.0753 119.095L59.1039 130.509 52.6672 130.538 52.6099 109.053 58.6176 109.025 58.6176 111.313 58.7034 111.313C59.9336 109.111 62.165 108.281 64.6253 108.281 67.4002 108.281 69.5172 109.654 70.8332 112.086 72.378 109.654 74.7239 108.252 77.6419 108.224 79.7588 108.224 81.79 108.824 83.3062 110.369 85.7379 112.83 85.6521 115.404 85.6521 118.694L85.6807 130.423 79.2725 130.423Z" fill="#1FA390" fill-rule="nonzero" fill-opacity="1" transform="matrix(1 0 0 1.00409 676.075 1105)"/><path d="M90.1435 106.622 90.1149 101.758 96.5517 101.73 96.5803 106.593 90.1435 106.622ZM90.2293 130.395 90.1721 108.91 96.6089 108.882 96.6661 130.366 90.2293 130.395Z" fill="#1FA390" fill-rule="nonzero" fill-opacity="1" transform="matrix(1 0 0 1.00409 676.075 1105)"/><path d="M107.909 113.745 107.966 130.338 101.529 130.366 101.472 113.774 99.0692 113.774 99.0406 108.91 101.444 108.91 101.444 107.795C101.415 102.559 105.134 101.215 109.625 101.186L110.541 101.186 110.57 106.021C108.252 106.021 107.852 106.507 107.88 108.882L110.598 108.882 110.627 113.745 107.909 113.745Z" fill="#1FA390" fill-rule="nonzero" fill-opacity="1" transform="matrix(1 0 0 1.00409 676.075 1105)"/><path d="M129.394 130.252 129.394 127.935 129.308 127.935C128.163 130.137 125.36 130.996 123.043 131.024 116.434 131.053 112.229 125.961 112.2 119.581 112.172 113.316 116.491 108.109 122.957 108.081 125.331 108.081 127.963 108.968 129.222 111.084L129.308 111.084 129.308 108.796 135.745 108.767 135.802 130.252 129.394 130.252ZM123.901 114.06C120.754 114.06 118.608 116.549 118.608 119.61 118.608 122.585 120.954 125.017 123.958 125.017 127.105 125.017 129.336 122.585 129.308 119.495 129.336 116.377 127.048 114.06 123.901 114.06Z" fill="#1FA390" fill-rule="nonzero" fill-opacity="1" transform="matrix(1 0 0 1.00409 676.075 1105)"/><path d="M146.844 118.408 146.873 130.223 140.436 130.252 140.379 108.767 146.415 108.739 146.415 111.027 146.501 111.027C147.617 108.824 149.39 107.995 151.879 107.995L151.908 114.46C149.076 114.517 146.816 115.09 146.844 118.408Z" fill="#1FA390" fill-rule="nonzero" fill-opacity="1" transform="matrix(1 0 0 1.00409 676.075 1105)"/><path d="M181.031 130.08 181.002 118.666C181.002 116.291 180.688 113.917 177.684 113.917 174.823 113.917 174.136 115.948 174.136 118.38L174.165 130.109 167.728 130.137 167.7 118.465C167.7 116.263 167.185 113.974 164.467 113.974 161.492 113.974 160.834 116.234 160.834 118.751L160.862 130.166 154.425 130.195 154.368 108.71 160.376 108.681 160.376 110.97 160.462 110.97C161.692 108.767 163.923 107.938 166.384 107.938 169.159 107.938 171.276 109.311 172.591 111.742 174.136 109.311 176.482 107.909 179.4 107.88 181.517 107.88 183.548 108.481 185.065 110.026 187.496 112.486 187.41 115.061 187.41 118.351L187.439 130.08 181.031 130.08Z" fill="#1FA390" fill-rule="nonzero" fill-opacity="1" transform="matrix(1 0 0 1.00409 676.075 1105)"/><path d="M208.065 129.994 208.065 127.677 207.979 127.677C206.835 129.88 204.032 130.738 201.714 130.767 195.106 130.795 190.901 125.703 190.872 119.324 190.843 113.058 195.163 107.852 201.629 107.823 203.974 107.823 206.635 108.71 207.894 110.827L207.979 110.827 207.979 108.538 214.388 108.51 214.445 129.994 208.065 129.994ZM202.573 113.802C199.426 113.802 197.28 116.291 197.28 119.352 197.28 122.327 199.626 124.759 202.63 124.759 205.777 124.759 208.008 122.327 207.979 119.238 208.008 116.119 205.719 113.802 202.573 113.802Z" fill="#1FA390" fill-rule="nonzero" fill-opacity="1" transform="matrix(1 0 0 1.00409 676.075 1105)"/><path d="M32.5272 107.251C32.4128 107.194 35.5024 102.102 35.5024 102.102 35.5024 102.102 35.9029 101.644 36.3034 102.102 36.7039 102.559 39.6792 107.051 39.765 107.652 37.6194 108.853 36.7039 109.654 36.4751 109.654 36.1604 109.654 36.1604 108.996 32.5272 107.251Z" fill="#1FA390" fill-rule="nonzero" fill-opacity="1" transform="matrix(1 0 0 1.00409 676.075 1105)"/><path d="M26.0618 105.62C28.4649 106.536 32.3841 108.567 34.9589 110.598 32.0409 112.687 26.4909 116.491 28.5507 125.446 25.2036 122.957 25.0319 111.599 24.8603 106.05 24.9175 105.306 25.7757 105.506 26.0618 105.62Z" fill="#191D32" fill-rule="nonzero" fill-opacity="1" transform="matrix(1 0 0 1.00409 676.075 1105)"/><path d="M47.6608 106.307C47.6036 105.592 47.2603 105.477 46.917 105.535 46.7167 105.563 46.5165 105.649 46.402 105.706 42.4541 107.594 34.3581 111.971 31.4401 115.948 28.9226 119.352 28.4363 125.217 30.6391 127.763 33.128 130.652 38.7351 131.768 42.0536 128.364 45.2291 125.102 46.7739 118.637 47.3747 113.23 47.3747 113.23 47.3747 113.173 47.3747 113.173 47.718 110.427 47.7752 107.909 47.6608 106.307Z" fill="#1FA390" fill-rule="nonzero" fill-opacity="1" transform="matrix(1 0 0 1.00409 676.075 1105)"/></g></g></g></g></svg>